<?xml version="1.0" encoding="UTF-8" standalone="no"?>
<svg
   xmlns:dc="http://purl.org/dc/elements/1.1/"
   xmlns:cc="http://creativecommons.org/ns#"
   xmlns:rdf="http://www.w3.org/1999/02/22-rdf-syntax-ns#"
   xmlns:svg="http://www.w3.org/2000/svg"
   xmlns="http://www.w3.org/2000/svg"
   xmlns:sodipodi="http://sodipodi.sourceforge.net/DTD/sodipodi-0.dtd"
   xmlns:inkscape="http://www.inkscape.org/namespaces/inkscape"
   sodipodi:docname="adwokatura-logo-szare.svg"
   inkscape:version="1.0 (4035a4fb49, 2020-05-01)"
   id="svg81"
   version="1.1"
   viewBox="0 0 23.887274 23.99988"
   height="23.99988mm"
   width="23.887274mm">
  <defs
     id="defs75" />
  <sodipodi:namedview
     inkscape:window-maximized="0"
     inkscape:window-y="0"
     inkscape:window-x="160"
     inkscape:window-height="1030"
     inkscape:window-width="1661"
     showgrid="false"
     inkscape:document-rotation="0"
     inkscape:current-layer="layer1"
     inkscape:document-units="mm"
     inkscape:cy="115.18406"
     inkscape:cx="66.147203"
     inkscape:zoom="2.8"
     inkscape:pageshadow="2"
     inkscape:pageopacity="0.0"
     borderopacity="1.0"
     bordercolor="#666666"
     pagecolor="#ffffff"
     id="base" />
  <metadata
     id="metadata78">
    <rdf:RDF>
      <cc:Work
         rdf:about="">
        <dc:format>image/svg+xml</dc:format>
        <dc:type
           rdf:resource="http://purl.org/dc/dcmitype/StillImage" />
        <dc:title></dc:title>
      </cc:Work>
    </rdf:RDF>
  </metadata>
  <g
     transform="translate(-93.890176,-136.16562)"
     id="layer1"
     inkscape:groupmode="layer"
     inkscape:label="Warstwa 1">
    <path
       d="m 116.86962,149.94007 c -0.003,-0.15734 -0.0363,-0.28505 -0.0991,-0.37889 -0.0635,-0.0924 -0.15064,-0.14993 -0.26141,-0.16721 -0.25647,-0.0423 -0.41345,0.11324 -0.47237,0.46954 -0.0102,0.054 -0.0198,0.12489 -0.03,0.20885 -0.0106,0.0829 -0.0187,0.1404 -0.0236,0.1711 -0.002,0.012 -0.009,0.0483 -0.0233,0.10865 0.20003,0.0208 0.47167,0.0596 0.81527,0.11712 0.35631,0.0582 0.62512,0.10866 0.80716,0.15029 -10e-4,-0.043 0.001,-0.0825 0.007,-0.1136 0.005,-0.0328 0.0148,-0.0695 0.0296,-0.10724 -0.14852,-0.0166 -0.26917,-0.0318 -0.36054,-0.0466 l -0.43392,-0.0727 0.002,-0.0452 c 0.007,-0.0374 0.0289,-0.0653 0.0684,-0.0868 l 0.37536,-0.2025 c 0.10477,-0.0575 0.25893,-0.1337 0.46178,-0.22824 3.5e-4,-0.0522 0.004,-0.0991 0.0109,-0.14041 0.007,-0.0416 0.0183,-0.0903 0.0346,-0.14076 -0.43709,0.248 -0.73977,0.41522 -0.90734,0.50447 m -0.3683,-0.33902 c 0.23318,0.0395 0.31997,0.2346 0.26105,0.58738 l -0.0152,0.0783 -0.41733,-0.0692 c -0.0921,-0.0148 -0.17216,-0.0339 -0.24025,-0.0543 0.008,-0.0769 0.0166,-0.13758 0.024,-0.18662 0.0444,-0.27305 0.17428,-0.38911 0.38771,-0.3556 m -0.45297,1.28199 c -0.19579,0.10231 -0.33725,0.28223 -0.42333,0.54222 -0.0857,0.25542 -0.0801,0.48331 0.0162,0.68616 0.0956,0.20143 0.26634,0.3436 0.51399,0.42545 0.24871,0.0829 0.47202,0.0737 0.66605,-0.0289 0.19473,-0.10266 0.33549,-0.2847 0.42298,-0.54363 0.084,-0.25365 0.0769,-0.48084 -0.0205,-0.68475 -0.097,-0.20249 -0.26635,-0.34537 -0.508,-0.42545 -0.24836,-0.0822 -0.47096,-0.072 -0.66746,0.0289 m 0.59055,0.19721 c 0.23248,0.0769 0.39335,0.19014 0.4826,0.33831 0.0892,0.14782 0.1009,0.32032 0.0353,0.51576 -0.0663,0.19826 -0.1778,0.3295 -0.33655,0.39476 -0.15839,0.0649 -0.35136,0.0582 -0.58173,-0.0166 -0.23354,-0.079 -0.39652,-0.19226 -0.48789,-0.34078 -0.091,-0.14852 -0.10513,-0.32068 -0.0395,-0.51859 0.0667,-0.19826 0.17956,-0.33055 0.3369,-0.39617 0.1584,-0.0628 0.3556,-0.0554 0.59091,0.0233 m -1.37443,1.39983 -0.0268,0.0709 -0.0462,0.0624 c 0.26071,0.12664 0.56304,0.28398 0.90876,0.47166 0.0282,0.0145 0.0889,0.0505 0.1838,0.10513 -0.61595,0.18097 -1.17546,0.32455 -1.6757,0.43497 l -0.0226,0.0409 0.22402,0.11995 c 0.45155,0.24553 0.86254,0.48013 1.23296,0.7052 l 0.0293,-0.0776 0.0494,-0.0663 c -0.34925,-0.17533 -0.63253,-0.32314 -0.84773,-0.43991 -0.0603,-0.0335 -0.1524,-0.085 -0.27552,-0.15487 l 0.81809,-0.21908 c 0.387,-0.10407 0.68616,-0.17568 0.89888,-0.21307 l 0.0145,-0.0279 c -0.20179,-0.10549 -0.36266,-0.19227 -0.4826,-0.25612 -0.33972,-0.18521 -0.66746,-0.36936 -0.98249,-0.55633 m -0.7687,1.73955 c -0.21943,0.0282 -0.41416,0.14993 -0.58349,0.36265 -0.16828,0.21096 -0.2413,0.42721 -0.22049,0.64982 0.0208,0.22295 0.13229,0.41522 0.33655,0.57749 0.20532,0.16405 0.41769,0.23107 0.63606,0.20074 0.21802,-0.0296 0.4124,-0.15135 0.58279,-0.36584 0.1658,-0.20884 0.23848,-0.42545 0.2166,-0.64981 -0.0215,-0.22437 -0.13229,-0.41628 -0.33231,-0.57362 -0.20461,-0.16333 -0.41558,-0.23072 -0.63571,-0.20143 m 0.48648,0.38664 c 0.19191,0.1524 0.30515,0.31291 0.33796,0.48366 0.0328,0.16863 -0.0155,0.33478 -0.14428,0.49741 -0.12947,0.16369 -0.27976,0.24801 -0.45085,0.25436 -0.17145,0.007 -0.35102,-0.0653 -0.54011,-0.21555 -0.19367,-0.15416 -0.30762,-0.31644 -0.34254,-0.48683 -0.0349,-0.17216 0.0127,-0.33796 0.14005,-0.50095 0.13159,-0.16404 0.28187,-0.24941 0.45332,-0.25541 0.17039,-0.006 0.35278,0.0688 0.54645,0.22331 m -0.68827,2.08421 c -0.23673,-0.24799 -0.43676,-0.46495 -0.60186,-0.64981 -0.18203,-0.20778 -0.34537,-0.40181 -0.48824,-0.57996 l -0.079,0.0818 -0.0928,0.0691 c 0.13017,0.12347 0.27128,0.27058 0.42192,0.44132 l 0.061,0.0723 c -0.0815,0.0741 -0.20497,0.18521 -0.36971,0.3302 -0.16581,0.14746 -0.29104,0.25576 -0.37536,0.32773 l -0.0621,-0.0702 c -0.21696,-0.24694 -0.34854,-0.40252 -0.3937,-0.46708 l -0.0769,0.0797 -0.0914,0.0684 c 0.11501,0.11078 0.2854,0.29634 0.51435,0.55704 0.24659,0.27905 0.43674,0.50482 0.57044,0.67804 l 0.0765,-0.0811 0.0935,-0.0684 c -0.0628,-0.0589 -0.22436,-0.23672 -0.48612,-0.53199 l -0.0744,-0.085 c 0.1217,-0.11395 0.24482,-0.22543 0.369,-0.33479 0.12312,-0.10936 0.24906,-0.21731 0.37571,-0.32244 l 0.0766,0.0836 c 0.1845,0.20744 0.33726,0.39159 0.46073,0.55281 l 0.0762,-0.0804 0.0956,-0.0709 m -3.64243,0.60078 -0.0402,0.0212 c 0.0427,0.53587 0.0822,1.14476 0.121,1.82633 l 0.0656,-0.0459 0.0755,-0.0261 c -0.0399,-0.26952 -0.067,-0.49671 -0.0797,-0.68404 0.0561,-0.0332 0.14464,-0.0815 0.26141,-0.14252 0.11641,-0.0624 0.20531,-0.10619 0.26458,-0.13405 l 0.0815,0.0663 c 0.15311,0.12558 0.29845,0.2547 0.43533,0.38805 0.0363,-0.0286 0.0702,-0.0512 0.10266,-0.0684 0.0318,-0.0166 0.0677,-0.0314 0.10971,-0.0441 -0.47131,-0.37923 -0.93662,-0.76411 -1.39735,-1.15676 m 0.57644,0.74331 c -0.0413,0.0226 -0.0935,0.0497 -0.15699,0.0829 -0.0639,0.0349 -0.10583,0.0586 -0.12735,0.0695 -0.0286,0.0152 -0.061,0.031 -0.096,0.0483 -0.0363,0.0187 -0.0579,0.0303 -0.0667,0.0346 l -0.0497,-0.64806 c 0.23107,0.18733 0.36724,0.29916 0.41134,0.33796 l 0.0854,0.0748 m -1.31445,-0.32914 -0.067,0.0335 c -0.0155,0.006 -0.0402,0.012 -0.0762,0.0166 0.10795,0.26882 0.22648,0.58808 0.35771,0.9585 0.009,0.0314 0.0325,0.0977 0.066,0.20179 -0.5782,-0.2794 -1.09079,-0.54751 -1.53599,-0.80222 l -0.0423,0.0152 0.0836,0.2413 c 0.17215,0.48401 0.3182,0.93451 0.44309,1.34938 l 0.0727,-0.0392 0.0804,-0.0155 c -0.14006,-0.36548 -0.25012,-0.66358 -0.33267,-0.895 -0.0233,-0.0653 -0.0561,-0.16475 -0.0991,-0.2988 l 0.75212,0.38523 c 0.35666,0.18168 0.62759,0.3302 0.80998,0.44485 l 0.0293,-0.01 c -0.0787,-0.21484 -0.14076,-0.38629 -0.18627,-0.51399 -0.12806,-0.36442 -0.2473,-0.72214 -0.35525,-1.07174 m -1.54234,0.52211 c -0.27658,0.0572 -0.48366,0.0984 -0.62336,0.12347 -0.1404,0.0258 -0.3496,0.0617 -0.629,0.10548 l 0.0166,0.0674 0.009,0.0702 c 0.25647,-0.0649 0.49283,-0.11712 0.70591,-0.15628 0.0854,-0.0152 0.14781,-0.0265 0.18909,-0.0317 -0.22084,0.53763 -0.46885,1.10031 -0.74401,1.68875 0.18803,-0.0388 0.37818,-0.0762 0.5722,-0.11148 0.16193,-0.0296 0.41522,-0.072 0.75671,-0.12806 l -0.0162,-0.0744 -0.009,-0.0734 c -0.248,0.0656 -0.48542,0.11853 -0.71085,0.16016 -0.0639,0.0109 -0.15769,0.0272 -0.28575,0.0459 0.21767,-0.53657 0.47378,-1.0989 0.76906,-1.68592 m -1.47884,0.25929 -0.0885,0.013 -0.0896,-0.006 c -0.11113,0.27869 -0.24519,0.55633 -0.40217,0.83149 -0.18415,-0.24941 -0.34467,-0.5147 -0.48366,-0.79657 -0.0381,0.007 -0.0815,0.0123 -0.13123,0.0148 -0.0497,0.002 -0.0938,0 -0.133,-0.005 0.1711,0.26176 0.37359,0.57679 0.60784,0.9465 0.013,0.11995 0.0208,0.22966 0.025,0.32915 0.004,0.0974 0.004,0.21202 0.001,0.34466 0.0402,-0.0106 0.0773,-0.0152 0.11112,-0.0166 0.0325,-0.002 0.0691,0.001 0.11042,0.007 -0.0155,-0.15205 -0.0265,-0.30409 -0.0325,-0.45649 -0.003,-0.0575 -0.004,-0.14323 -0.004,-0.25436 0.14887,-0.30056 0.31997,-0.61771 0.50906,-0.9525 m -1.51977,0.0476 c -0.28116,-0.0236 -0.49212,-0.0437 -0.63253,-0.0593 -0.14146,-0.0148 -0.35207,-0.042 -0.63288,-0.0776 l -0.003,0.0702 -0.012,0.0688 c 0.26493,0.01 0.50518,0.0272 0.72108,0.0508 0.0854,0.01 0.14957,0.0176 0.19085,0.0233 -0.36548,0.45191 -0.76306,0.92181 -1.1938,1.40794 0.19015,0.0155 0.38382,0.0339 0.57997,0.0557 0.16368,0.018 0.41839,0.0483 0.7627,0.0924 l 0.005,-0.0762 0.0109,-0.072 c -0.25576,-0.009 -0.49847,-0.0254 -0.72602,-0.0501 -0.0632,-0.007 -0.1591,-0.0194 -0.2861,-0.036 0.35983,-0.45297 0.76588,-0.91899 1.21567,-1.39806 m -1.55116,-0.0945 c -0.12947,-0.11395 -0.28575,-0.19438 -0.47061,-0.24412 -0.26352,-0.0702 -0.49353,-0.0511 -0.68897,0.0582 -0.19579,0.10936 -0.32703,0.28857 -0.39335,0.53869 -0.0699,0.26176 -0.0522,0.48366 0.0515,0.66499 0.10371,0.18097 0.28398,0.30515 0.54186,0.37359 0.22896,0.0617 0.41452,0.0639 0.55528,0.008 l 0.055,-0.14993 c -0.19509,0.0889 -0.38135,0.1076 -0.55951,0.0614 -0.18415,-0.0497 -0.31326,-0.15275 -0.38664,-0.31045 -0.073,-0.15839 -0.0801,-0.35207 -0.0191,-0.58102 0.0624,-0.23566 0.16545,-0.40287 0.30833,-0.50377 0.14252,-0.0998 0.3115,-0.12417 0.50517,-0.073 0.20567,0.0547 0.34079,0.17816 0.40429,0.37148 0.0187,-0.0699 0.0508,-0.14076 0.0967,-0.21414 m -2.13713,0.75212 c 3.5e-4,-0.002 0.031,-0.0861 0.0924,-0.254 0.0614,-0.16686 0.12347,-0.33302 0.18803,-0.50023 0.0917,-0.23778 0.16792,-0.42651 0.22895,-0.56657 -0.0335,-0.006 -0.0716,-0.0176 -0.11324,-0.0339 l -0.0875,-0.0409 c -0.067,0.21343 -0.22119,0.63289 -0.46214,1.25801 -0.0727,0.18732 -0.13793,0.30868 -0.19685,0.36301 -0.0702,0.066 -0.16933,0.0836 -0.29633,0.0533 l -0.012,0.0702 c 0.17109,0.0473 0.30762,0.0427 0.40887,-0.0123 0.10124,-0.0557 0.1845,-0.16828 0.24976,-0.33655 m -0.29033,-1.41358 c -0.067,-0.21132 -0.22155,-0.38065 -0.46073,-0.51083 -0.23742,-0.12629 -0.4639,-0.16016 -0.67945,-0.10054 -0.21555,0.0593 -0.383823,0.20497 -0.507295,0.43321 -0.124884,0.23284 -0.153459,0.45262 -0.08502,0.66252 0.06773,0.2092 0.22225,0.37853 0.464255,0.50835 0.23425,0.12559 0.45967,0.1584 0.67663,0.0974 0.21731,-0.0614 0.38559,-0.20461 0.50659,-0.42862 0.12347,-0.23037 0.15205,-0.4512 0.085,-0.66146 m -0.29493,0.54751 c -0.11571,0.2159 -0.254,0.35454 -0.41486,0.41769 -0.16122,0.0628 -0.33338,0.0448 -0.51541,-0.0533 -0.183798,-0.0988 -0.294218,-0.23177 -0.330554,-0.39864 -0.03704,-0.16651 0.0014,-0.35666 0.116417,-0.56973 0.116417,-0.21696 0.255407,-0.35807 0.418397,-0.42334 0.16192,-0.0646 0.33443,-0.048 0.51646,0.0497 0.18521,0.0998 0.29599,0.23284 0.33232,0.3997 0.0363,0.16616 -0.005,0.35948 -0.12277,0.57785 m -2.069427,-2.04436 c -0.0095,-0.22155 -0.113595,-0.42475 -0.311503,-0.61278 -0.196144,-0.18521 -0.406047,-0.27693 -0.629356,-0.27552 -0.223661,0.003 -0.424391,0.0974 -0.60325,0.28646 -0.180269,0.19085 -0.265641,0.39723 -0.255058,0.61665 0.01094,0.21978 0.116064,0.42369 0.315031,0.61243 0.193675,0.18273 0.403225,0.27375 0.628297,0.27093 0.225778,-0.003 0.42545,-0.0963 0.60078,-0.28117 0.179212,-0.19014 0.264584,-0.39581 0.255059,-0.617 m -0.42722,0.45261 c -0.168628,0.17745 -0.338667,0.27517 -0.51047,0.29387 -0.172155,0.0187 -0.332669,-0.0434 -0.483305,-0.18627 -0.152048,-0.14287 -0.222956,-0.29986 -0.215195,-0.47025 0.0081,-0.17216 0.09525,-0.34572 0.261408,-0.52 0.169334,-0.18027 0.340784,-0.2794 0.51435,-0.29915 0.173214,-0.0212 0.335139,0.0409 0.485775,0.18344 0.1524,0.14358 0.225073,0.30057 0.216253,0.47167 -0.0088,0.17109 -0.09843,0.34607 -0.268816,0.52669 m -0.619478,-1.69298 -0.05433,-0.0617 -0.03669,-0.0688 c -0.455436,0.17181 -0.915458,0.3228 -1.379714,0.45438 0.285397,-0.40357 0.577145,-0.79516 0.874536,-1.17545 l -0.05362,-0.0589 -0.03634,-0.0702 c -0.475544,0.17003 -0.948267,0.31608 -1.418519,0.44237 0.290688,-0.38276 0.597605,-0.76693 0.920044,-1.15323 -0.02434,-0.024 -0.04904,-0.0533 -0.07408,-0.0889 -0.02505,-0.0363 -0.04374,-0.0691 -0.05821,-0.10018 -0.436033,0.57432 -0.786694,1.02905 -1.050572,1.36454 l 0.05786,0.0617 0.03845,0.0759 1.360311,-0.40287 c -0.299863,0.42579 -0.58279,0.80362 -0.850549,1.13664 l 0.06033,0.0632 0.03986,0.0741 c 0.801864,-0.23918 1.355372,-0.40358 1.661231,-0.49248 m -1.490839,-2.42499 -0.01976,-0.0399 c -0.53728,0.019 -1.147233,0.0346 -1.829858,0.0445 l 0.04304,0.0684 0.02328,0.0769 c 0.270228,-0.0293 0.498828,-0.0473 0.686506,-0.0526 0.0314,0.0582 0.07514,0.1471 0.132291,0.26846 0.0568,0.11747 0.09737,0.20743 0.12312,0.26811 l -0.0695,0.0794 c -0.132292,0.14852 -0.267406,0.28716 -0.405695,0.41875 0.02646,0.037 0.04798,0.0727 0.06315,0.10548 0.01552,0.0317 0.02858,0.0702 0.04022,0.11253 0.397934,-0.45649 0.802217,-0.90593 1.213203,-1.35008 m -0.766586,0.54575 c -0.02011,-0.0416 -0.04551,-0.096 -0.07655,-0.16157 -0.0321,-0.0642 -0.05397,-0.10795 -0.06385,-0.12806 -0.01376,-0.03 -0.02893,-0.0628 -0.04445,-0.0991 -0.01729,-0.0374 -0.02787,-0.0596 -0.0321,-0.0674 l 0.65017,-0.0243 c -0.19685,0.22296 -0.315031,0.3556 -0.354895,0.39864 l -0.07832,0.0819 m -0.602191,-1.68136 c 0.07232,0.14005 0.158397,0.23812 0.25647,0.29492 0.09878,0.0561 0.201788,0.0674 0.309033,0.0349 0.249061,-0.0758 0.320675,-0.2854 0.215547,-0.63006 -0.01658,-0.0543 -0.0381,-0.12136 -0.06667,-0.20038 -0.02716,-0.0808 -0.04621,-0.13582 -0.05433,-0.16369 -0.0039,-0.0134 -0.01305,-0.049 -0.02787,-0.10724 -0.18803,0.0681 -0.449086,0.15416 -0.782108,0.25611 -0.34537,0.10513 -0.608542,0.17957 -0.790222,0.22331 0.02046,0.0388 0.03528,0.0734 0.04445,0.10407 0.0099,0.0325 0.01693,0.0688 0.02117,0.11007 0.140053,-0.0512 0.255059,-0.0907 0.343959,-0.11783 l 0.421216,-0.12876 0.01799,0.0409 c 0.01058,0.0363 0.0028,0.073 -0.02223,0.10759 l -0.246591,0.34925 c -0.06879,0.0974 -0.173214,0.2346 -0.312562,0.41028 0.02258,0.0473 0.03986,0.0903 0.05186,0.12983 0.0127,0.0416 0.02328,0.0882 0.03069,0.14252 0.282222,-0.41804 0.479072,-0.70132 0.590197,-0.85583 m 0.480131,0.13899 c -0.225425,0.0702 -0.390173,-0.0674 -0.494595,-0.40851 l -0.02152,-0.0776 0.405342,-0.12277 c 0.0889,-0.0286 0.168275,-0.0462 0.239183,-0.0579 0.02716,0.0706 0.04762,0.12982 0.06174,0.1778 0.08008,0.26388 0.01729,0.42651 -0.190147,0.48895 m -0.04516,-1.32433 c 0.05821,-0.10477 0.07338,-0.24094 0.04551,-0.4131 -0.0081,-0.0508 -0.02152,-0.11888 -0.04092,-0.20673 -0.02046,-0.0857 -0.03316,-0.14887 -0.0388,-0.18732 -0.0053,-0.031 -0.0092,-0.0702 -0.01199,-0.11853 -0.250119,0.0508 -0.520347,0.0991 -0.809978,0.1464 -0.279048,0.0441 -0.549981,0.0836 -0.812448,0.11536 0.01482,0.0441 0.02505,0.0822 0.03069,0.11818 0.0039,0.0212 0.0056,0.0547 0.0067,0.0995 0.141464,-0.0307 0.274108,-0.0557 0.399697,-0.0751 l 0.33902,-0.0557 c 0.0053,0.0526 0.01376,0.11253 0.02469,0.18203 0.03457,0.21343 0.102658,0.37042 0.203553,0.4699 0.100894,0.0991 0.227894,0.13582 0.380294,0.11148 0.131233,-0.0205 0.225778,-0.0836 0.283986,-0.18627 m -0.34043,-0.0332 c -0.248003,0.0388 -0.399345,-0.11148 -0.454378,-0.45226 -0.0035,-0.024 -0.0074,-0.06 -0.01164,-0.1076 l 0.214136,-0.0349 c 0.155928,-0.0247 0.31997,-0.0466 0.493184,-0.0663 0.01305,0.0519 0.02328,0.0991 0.03069,0.1464 0.0254,0.15946 0.01764,0.28117 -0.02258,0.36195 -0.04057,0.0811 -0.124178,0.13194 -0.249414,0.15275 m 22.048256,-5.71288 -0.0138,-0.0437 c -0.53551,-0.0533 -1.14159,-0.1203 -1.81892,-0.20285 l 0.0325,0.0737 0.0131,0.0794 c 0.27164,0.007 0.5013,0.0212 0.68756,0.0416 0.0222,0.0607 0.0547,0.15593 0.0949,0.28258 0.0402,0.12488 0.0684,0.21942 0.085,0.28328 l -0.079,0.0681 c -0.15134,0.12877 -0.30374,0.24942 -0.45896,0.36054 0.0219,0.0409 0.0378,0.0783 0.049,0.1143 0.0102,0.0332 0.0187,0.0716 0.024,0.11536 0.45614,-0.39723 0.91793,-0.78916 1.38465,-1.17228 m -0.83326,0.43674 c -0.0138,-0.0448 -0.0321,-0.10195 -0.054,-0.17075 -0.0236,-0.0677 -0.0388,-0.1143 -0.0462,-0.13617 -0.0102,-0.0307 -0.0198,-0.0649 -0.03,-0.10442 -0.0131,-0.0381 -0.0201,-0.0621 -0.0233,-0.0713 l 0.647,0.0642 c -0.22472,0.19509 -0.35913,0.31115 -0.40534,0.34608 l -0.0882,0.0723 m -1.09963,-0.91228 c 0.23142,-0.59055 0.38241,-0.96097 0.45085,-1.11337 l 0.47272,0.1531 c 0.29563,0.097 0.47061,0.15946 0.526,0.18521 -0.0208,-0.0257 -0.0399,-0.0564 -0.0586,-0.0924 l -0.0402,-0.0988 c -0.64805,-0.14429 -0.9899,-0.24977 -1.02517,-0.31856 l 7.1e-4,-0.0138 0.32703,-0.16827 c 0.14005,-0.073 0.25788,-0.12771 0.35242,-0.16616 -0.0261,-0.0339 -0.048,-0.067 -0.0628,-0.0977 -0.0102,-0.0194 -0.0236,-0.0522 -0.0402,-0.0981 -0.17286,0.1023 -0.44556,0.2487 -0.81774,0.44132 -0.26952,0.13864 -0.4826,0.24236 -0.64135,0.31044 l 0.061,0.091 c 0.0145,0.0296 0.0282,0.0649 0.0413,0.10619 0.12594,-0.0744 0.28469,-0.16263 0.47872,-0.26282 l 0.25435,-0.13194 c 0.0219,0.0462 0.0127,0.11289 -0.0272,0.20461 l -0.17674,0.40252 c -0.0462,0.10125 -0.11253,0.24165 -0.20249,0.42157 0.0296,0.0381 0.054,0.0773 0.0727,0.11395 0.019,0.0377 0.037,0.0804 0.0547,0.13194 m -0.38347,-1.73144 c 0.0829,-0.0593 0.13793,-0.12806 0.16157,-0.20602 0.0233,-0.0769 0.0222,-0.17498 -0.003,-0.29457 l -0.043,-0.2092 c -0.0353,-0.17215 -0.002,-0.29492 0.0995,-0.36689 0.0748,-0.0519 0.14922,-0.0734 0.22295,-0.0607 0.0744,0.012 0.13653,0.0543 0.18733,0.127 0.0787,0.10971 0.0928,0.23601 0.0413,0.375 0.0723,-0.0254 0.13582,-0.0423 0.19085,-0.0515 -0.0184,-0.12982 -0.0649,-0.24694 -0.13831,-0.3496 -0.0861,-0.12312 -0.19191,-0.19826 -0.31715,-0.22613 -0.12453,-0.0272 -0.24342,-7.1e-4 -0.35419,0.078 -0.14746,0.10266 -0.19614,0.26741 -0.14746,0.49425 l 0.0459,0.20708 c 0.0198,0.0914 0.0222,0.16439 0.009,0.21695 -0.0148,0.0589 -0.0547,0.11042 -0.11748,0.15558 -0.0882,0.0628 -0.17744,0.0864 -0.26634,0.0709 -0.0875,-0.0159 -0.16122,-0.0649 -0.22084,-0.14958 -0.10901,-0.15346 -0.10619,-0.3175 0.006,-0.4886 -0.0737,0.0427 -0.1524,0.078 -0.23883,0.10372 -0.006,0.13794 0.0367,0.27234 0.12841,0.40322 0.0998,0.14253 0.21802,0.22825 0.3563,0.2593 0.13794,0.03 0.27094,7.1e-4 0.39794,-0.0882 m -1.1811,-0.7934 0.0293,-0.025 0.0247,-0.0261 0.0293,-0.0243 0.0268,-0.0247 c -0.0956,-0.067 -0.2159,-0.17991 -0.35983,-0.33655 -0.0519,-0.0572 -0.0886,-0.0977 -0.10866,-0.12276 0.19932,-0.19685 0.36195,-0.35349 0.48754,-0.46814 0.12735,-0.11712 0.34255,-0.30409 0.64594,-0.55986 l -0.0822,-0.0755 -0.0691,-0.09 c -0.2159,0.21414 -0.41417,0.40358 -0.59514,0.56938 -0.16263,0.14817 -0.3683,0.32844 -0.61736,0.54222 0.0688,0.0674 0.14076,0.14288 0.2166,0.22578 l 0.37218,0.41557 m -0.1174,-2.19815 c -0.0279,-0.21908 -0.14923,-0.41381 -0.36231,-0.5835 -0.21025,-0.16898 -0.42686,-0.2413 -0.64981,-0.22084 -0.2219,0.0201 -0.41487,0.13194 -0.5768,0.33479 -0.16439,0.20567 -0.23107,0.41839 -0.20284,0.63676 0.03,0.21837 0.15204,0.4124 0.36689,0.58279 0.20813,0.16651 0.42368,0.23918 0.64805,0.21766 0.22401,-0.0212 0.41557,-0.13264 0.57573,-0.33196 0.16193,-0.2039 0.22931,-0.41592 0.20109,-0.6357 m -0.38771,0.48648 c -0.15204,0.1912 -0.31397,0.30444 -0.48295,0.33725 -0.17039,0.0328 -0.3362,-0.0152 -0.49741,-0.14464 -0.16299,-0.12982 -0.24801,-0.28045 -0.25471,-0.45049 -0.006,-0.17181 0.0663,-0.35172 0.21696,-0.54081 0.15346,-0.19368 0.31538,-0.30692 0.48718,-0.34149 0.1711,-0.0342 0.33761,0.0127 0.49954,0.14111 0.16369,0.13053 0.24976,0.28187 0.2547,0.45261 0.007,0.17004 -0.0681,0.35313 -0.22331,0.54646 m -1.26047,-1.82351 c -0.0459,-0.10936 -0.14429,-0.20743 -0.29563,-0.2914 -0.0444,-0.025 -0.10724,-0.0564 -0.18768,-0.0952 -0.0801,-0.0388 -0.13687,-0.0667 -0.17074,-0.0857 -0.0286,-0.0159 -0.0617,-0.0367 -0.0995,-0.0639 -0.11642,0.22719 -0.24554,0.46954 -0.38841,0.72601 -0.13759,0.24659 -0.27587,0.48366 -0.4124,0.70909 0.043,0.0152 0.0797,0.0314 0.10971,0.0483 0.0205,0.0106 0.0487,0.0307 0.084,0.0575 0.0639,-0.12982 0.12595,-0.25012 0.18874,-0.36089 l 0.16686,-0.30022 c 0.0434,0.0279 0.0967,0.0589 0.1577,0.0931 0.18873,0.10513 0.35383,0.14922 0.49424,0.13088 0.14076,-0.0183 0.248,-0.0935 0.32279,-0.2286 0.0656,-0.11677 0.0751,-0.2286 0.0303,-0.33902 m -0.23742,0.24659 c -0.12241,0.22013 -0.33337,0.24553 -0.63535,0.0773 -0.0201,-0.0116 -0.0511,-0.0314 -0.0921,-0.0572 l 0.10618,-0.18944 c 0.0759,-0.13794 0.16087,-0.28046 0.25224,-0.42863 0.0487,0.0208 0.0942,0.0434 0.13406,0.0663 0.14252,0.0783 0.23177,0.15911 0.27022,0.24166 0.0388,0.0822 0.0272,0.17885 -0.0353,0.28998 m -2.89101,-1.71203 -0.0441,-0.0116 c -0.32914,0.4251 -0.70944,0.90205 -1.14053,1.43086 0.0363,0.003 0.0632,0.007 0.0808,0.012 l 0.0734,0.0317 c 0.15134,-0.22648 0.28434,-0.41275 0.40075,-0.56021 0.0646,0.0134 0.16193,0.037 0.28999,0.0705 0.12806,0.0332 0.2226,0.0593 0.28645,0.079 l 0.0152,0.10265 c 0.0279,0.19721 0.0483,0.39018 0.06,0.58032 0.0455,0.005 0.0864,0.01 0.12277,0.0205 0.0342,0.008 0.0706,0.0219 0.10971,0.0409 -0.0921,-0.59831 -0.17709,-1.19663 -0.25435,-1.7967 m -0.0741,0.93768 c -0.0444,-0.0116 -0.1023,-0.0272 -0.1718,-0.0448 -0.0713,-0.0166 -0.11748,-0.0275 -0.14076,-0.0339 -0.03,-0.008 -0.0653,-0.0176 -0.10407,-0.0296 -0.0392,-0.0102 -0.0628,-0.0155 -0.0727,-0.019 l 0.3997,-0.51259 c 0.0452,0.29316 0.0699,0.4692 0.0776,0.52705 l 0.012,0.11289 m -1.42523,0.43674 c -0.28363,-0.41698 -0.47625,-0.70485 -0.5775,-0.86395 0.15734,-0.0166 0.28011,-0.0603 0.36936,-0.13123 0.0882,-0.0699 0.13723,-0.16122 0.1464,-0.27341 0.0208,-0.25929 -0.14711,-0.40393 -0.50659,-0.43286 -0.0557,-0.005 -0.12594,-0.008 -0.21025,-0.0127 -0.0857,-0.004 -0.14288,-0.007 -0.17216,-0.009 -0.0141,-0.001 -0.0494,-0.006 -0.11042,-0.0145 -0.005,0.20179 -0.0219,0.47555 -0.0511,0.82197 -0.0289,0.35913 -0.0579,0.63183 -0.0847,0.81633 0.0444,-0.004 0.0825,-0.004 0.11395,-0.003 0.0332,0.003 0.0705,0.01 0.10971,0.0212 0.005,-0.14958 0.0106,-0.27023 0.018,-0.36266 l 0.0367,-0.43885 0.0444,-10e-4 c 0.0381,0.003 0.0681,0.0229 0.0917,0.0603 l 0.23355,0.35701 c 0.0649,0.0998 0.15381,0.2473 0.26529,0.44274 0.0522,-0.005 0.0988,-0.005 0.14075,-7.1e-4 0.0434,0.004 0.09,0.0109 0.14288,0.0226 z m -0.27023,-1.25977 c -0.0191,0.23566 -0.20849,0.33832 -0.56444,0.30939 l -0.078,-0.009 0.0349,-0.42263 c 0.007,-0.0924 0.018,-0.17392 0.0346,-0.24342 0.0762,0.002 0.1397,0.005 0.18732,0.009 0.27517,0.0226 0.40358,0.14182 0.38559,0.35701 m -1.4679,-0.49636 -0.0787,0.0155 -0.0744,-0.004 c 0.0222,0.22966 0.0441,0.48013 0.0635,0.75071 0.0124,0.17639 0.0159,0.30198 0.0109,0.37818 -0.008,0.11324 -0.036,0.20426 -0.0829,0.27164 -0.0811,0.11748 -0.20955,0.18345 -0.38418,0.1972 -0.17321,0.0113 -0.30903,-0.0324 -0.4064,-0.13582 -0.0575,-0.0596 -0.0981,-0.14075 -0.12206,-0.242 -0.0152,-0.0617 -0.0275,-0.15205 -0.0363,-0.27446 l -0.0543,-0.87489 c -0.0307,0.0106 -0.0674,0.0169 -0.11042,0.0201 -0.0381,0.004 -0.0727,0.002 -0.10512,-0.002 0.0169,0.17216 0.0311,0.3235 0.0402,0.45297 0.007,0.0995 0.0134,0.20426 0.0194,0.31468 0.006,0.11077 0.008,0.17074 0.009,0.18062 0.0176,0.24941 0.0861,0.42862 0.2032,0.53657 0.11641,0.10866 0.29421,0.15311 0.53304,0.13618 0.28046,-0.0205 0.46849,-0.12947 0.56515,-0.32738 0.0374,-0.0808 0.0586,-0.1972 0.0614,-0.35066 0.001,-0.10125 -0.009,-0.28222 -0.0275,-0.54257 l -0.004,-0.0624 c -0.007,-0.0847 -0.0134,-0.23107 -0.0201,-0.43815 m -1.88772,0.32562 -0.0229,-0.0695 -0.008,-0.0688 c -0.21695,0.0547 -0.42404,0.10372 -0.62265,0.15028 -0.19544,0.0448 -0.38241,0.085 -0.56233,0.12206 l 0.0215,0.0709 0.0106,0.0667 c 0.097,-0.042 0.23884,-0.0843 0.42546,-0.12665 l 0.0628,-0.0155 0.0907,0.39229 c 0.0695,0.30339 0.14957,0.67098 0.24024,1.10207 0.0261,-0.008 0.0631,-0.0183 0.11183,-0.0307 0.0487,-0.0102 0.0847,-0.0176 0.10689,-0.0183 -0.0907,-0.35807 -0.16898,-0.6798 -0.23425,-0.96414 -0.0508,-0.22084 -0.0871,-0.39723 -0.10865,-0.52846 l 0.0677,-0.0155 c 0.17216,-0.0388 0.31256,-0.0621 0.42157,-0.0667 m -2.16641,0.43039 -0.0427,0.0159 c -0.0215,0.53728 -0.055,1.14688 -0.10019,1.8281 l 0.0709,-0.0381 0.0787,-0.0159 c -0.007,-0.2727 -0.007,-0.50165 0.003,-0.68862 0.0603,-0.0272 0.15312,-0.0639 0.27729,-0.11183 0.12277,-0.0462 0.21555,-0.079 0.27835,-0.10054 l 0.0723,0.0762 c 0.13724,0.14393 0.26565,0.28857 0.38559,0.43709 0.0388,-0.0229 0.0755,-0.0413 0.11042,-0.0543 0.0332,-0.0123 0.0709,-0.0222 0.11395,-0.0303 -0.42228,-0.43391 -0.83785,-0.87277 -1.24778,-1.31762 m 0.48296,0.80751 c -0.0438,0.0166 -0.0998,0.0377 -0.16652,0.0635 -0.067,0.0272 -0.11147,0.0452 -0.13405,0.0533 -0.0303,0.0117 -0.0642,0.0236 -0.10231,0.0367 -0.0374,0.0138 -0.0603,0.0233 -0.0699,0.0261 l 0.0289,-0.64876 c 0.20638,0.21237 0.32844,0.34149 0.36795,0.38488 l 0.0759,0.0843 m -0.87242,1.15922 c -0.60114,-0.19685 -0.98037,-0.32632 -1.13701,-0.38558 l 0.12665,-0.48049 c 0.0797,-0.30092 0.13088,-0.47907 0.15311,-0.53516 -0.0244,0.0222 -0.0533,0.0423 -0.0879,0.0632 l -0.0963,0.0455 c -0.10584,0.65546 -0.192268,1.00294 -0.25859,1.04175 H 99.8798 l -0.186971,-0.31609 c -0.08043,-0.13653 -0.142169,-0.25083 -0.186267,-0.34431 l -0.09313,0.0699 c -0.0194,0.0113 -0.05115,0.0272 -0.09596,0.0455 0.111478,0.16686 0.274462,0.43109 0.487187,0.79128 0.154163,0.26105 0.270221,0.46813 0.348191,0.62159 l 0.0868,-0.066 c 0.0279,-0.0166 0.0621,-0.0321 0.10336,-0.0466 -0.0822,-0.11995 -0.17921,-0.27517 -0.29033,-0.4625 l -0.145343,-0.24624 c 0.04339,-0.0243 0.111823,-0.0197 0.204963,0.0155 l 0.41204,0.15275 c 0.10336,0.0399 0.2473,0.0991 0.43215,0.1778 0.0378,-0.0314 0.0741,-0.0575 0.10972,-0.0787 0.036,-0.0212 0.079,-0.0427 0.12806,-0.0632 m -2.407002,-0.19438 c -0.221192,-0.0166 -0.436034,0.0624 -0.645937,0.23672 -0.206375,0.17321 -0.322086,0.36971 -0.347133,0.59196 -0.02505,0.2226 0.04586,0.43321 0.21202,0.63359 0.168275,0.20214 0.362302,0.31009 0.58173,0.32596 0.219781,0.0155 0.435328,-0.0646 0.645936,-0.24059 0.204611,-0.16969 0.318911,-0.36689 0.343253,-0.59055 0.02434,-0.22437 -0.0448,-0.43498 -0.208139,-0.63077 -0.167217,-0.20108 -0.361597,-0.30974 -0.58173,-0.32632 m 0.397933,0.47837 c 0.156633,0.18909 0.234244,0.3683 0.231775,0.54116 -0.0021,0.17321 -0.08255,0.32597 -0.242006,0.45861 -0.160161,0.1337 -0.324908,0.18627 -0.493536,0.15805 -0.168628,-0.0293 -0.3302,-0.13618 -0.485069,-0.32209 -0.157692,-0.18909 -0.236361,-0.37112 -0.235656,-0.54575 7.06e-4,-0.17462 0.08043,-0.32879 0.239536,-0.46143 0.161573,-0.1337 0.326673,-0.18733 0.494595,-0.15769 0.167922,0.0279 0.331258,0.13793 0.490361,0.32914 m -2.001661,0.60995 -0.04269,0.0695 -0.05574,0.0547 c 0.293511,0.38841 0.568678,0.78811 0.824794,1.19521 -0.46743,-0.1591 -0.926041,-0.32844 -1.375128,-0.50588 l -0.04163,0.0663 -0.05539,0.0543 c 0.295276,0.40887 0.569384,0.82162 0.821973,1.23684 -0.448028,-0.1711 -0.902759,-0.35666 -1.364897,-0.55775 l -0.06491,0.0956 -0.07938,0.085 c 0.673452,0.25717 1.208616,0.46531 1.605491,0.62406 l 0.04304,-0.0737 0.06209,-0.0582 -0.769761,-1.19098 c 0.492125,0.16652 0.935566,0.33197 1.328914,0.49566 l 0.0448,-0.0751 0.06068,-0.06 c -0.456494,-0.70097 -0.770114,-1.18745 -0.942269,-1.45556 m -1.671814,2.47544 c -0.121003,0.0649 -0.237772,0.20567 -0.350661,0.42193 -0.03316,0.0635 -0.07197,0.14217 -0.116064,0.23671 -0.0441,0.0938 -0.07338,0.15416 -0.08819,0.18344 -0.02328,0.0434 -0.05221,0.0963 -0.08784,0.15805 0.14852,0.0688 0.393347,0.19191 0.735189,0.37112 0.332669,0.17286 0.573969,0.30127 0.723547,0.38594 0.05786,-0.11853 0.08608,-0.17639 0.08431,-0.17286 0.0187,-0.036 0.04727,-0.0875 0.08608,-0.15522 0.03951,-0.0692 0.06738,-0.1196 0.08431,-0.1524 0.142874,-0.27482 0.185208,-0.51718 0.126647,-0.73025 -0.05891,-0.21202 -0.214489,-0.38347 -0.46602,-0.51435 -0.27058,-0.1397 -0.514703,-0.15205 -0.731308,-0.0321 m 0.66428,0.26 c 0.433917,0.22543 0.52952,0.57221 0.286809,1.03823 -0.03104,0.06 -0.07338,0.13299 -0.127,0.22013 -0.203906,-0.0991 -0.435681,-0.2159 -0.696736,-0.35243 -0.191911,-0.0995 -0.385586,-0.20249 -0.581731,-0.31009 0.04516,-0.10336 0.09701,-0.21166 0.157339,-0.32667 0.110419,-0.21343 0.240594,-0.34008 0.391231,-0.38312 0.150283,-0.043 0.340783,-0.005 0.570088,0.11395 m -1.787877,1.96427 -0.01411,0.042 c 0.406752,0.35242 0.863247,0.75777 1.368425,1.21567 0.0053,-0.0342 0.0099,-0.0607 0.01517,-0.0773 l 0.03563,-0.0723 c -0.217664,-0.16404 -0.39617,-0.30691 -0.537634,-0.43039 0.01729,-0.0649 0.04621,-0.1598 0.08608,-0.28645 0.03951,-0.12594 0.07197,-0.21872 0.09454,-0.28117 l 0.10407,-0.0102 c 0.197203,-0.0169 0.392289,-0.0272 0.582083,-0.0286 0.0063,-0.0455 0.01517,-0.0868 0.02611,-0.12065 0.01094,-0.0332 0.02646,-0.0695 0.04727,-0.10795 -0.601486,0.0596 -1.204736,0.11253 -1.807633,0.15734 m 0.932391,0.12417 c -0.01376,0.0434 -0.0321,0.10055 -0.05397,0.16934 -0.01976,0.0699 -0.03387,0.11536 -0.04163,0.13793 -0.0092,0.0318 -0.02117,0.0646 -0.03493,0.10301 -0.01235,0.037 -0.01976,0.0617 -0.02258,0.0702 l -0.491066,-0.4251 c 0.295981,-0.03 0.473075,-0.0459 0.530931,-0.048 l 0.113241,-0.007 m 9.861556,-3.51402 c -0.0102,0.0388 -0.018,0.072 -0.024,0.0991 -0.1136,-0.38171 -0.35701,-0.69498 -0.66464,-0.86113 0.21943,0.2928 0.36725,0.66392 0.40429,1.07209 0.10195,-0.007 0.2039,-0.007 0.30833,0.002 0.0801,0.006 0.16227,0.0169 0.24341,0.0321 0.01,-0.11889 0.0286,-0.23707 0.0575,-0.35842 0.10372,-0.42298 0.24553,-0.83185 0.52458,-1.08444 -0.42756,0.12277 -0.77188,0.78034 -0.84949,1.09855 m 1.10138,0.47131 c 0.0109,-0.042 0.024,-0.0924 0.0395,-0.15522 0.0861,-0.35419 0.0275,-1.0862 -0.29175,-1.41464 0.12982,0.36371 0.11642,0.81386 0.0131,1.23684 -0.0296,0.11994 -0.0681,0.23495 -0.11571,0.34431 0.10618,0.0423 0.20919,0.0942 0.30233,0.1464 0.10266,0.0593 0.19508,0.12559 0.28081,0.1972 l 0.005,-0.0268 c 0.0176,-0.0843 0.0416,-0.16757 0.0691,-0.25117 0.13829,-0.4117 0.38558,-0.74789 0.68615,-0.97473 -0.41804,0.0822 -0.80327,0.41522 -0.98813,0.89782 m -5.86811,5.60669 c -0.830085,0 -1.492955,0.25577 -1.988607,0.75989 -0.512234,0.50447 -0.767292,1.45168 -0.767292,2.15794 0,0.61736 0.206022,1.16628 0.627239,1.65417 0.408869,0.4886 0.921808,0.70238 1.536347,0.73519 0.04269,0.002 0.07691,0.008 0.115711,0.008 0.524582,-0.005 0.952502,-0.11536 1.283762,-0.33514 l -0.003,0.31858 h 0.96343 l 0.006,-6.38352 c -0.0949,-1.6577 -1.18639,-2.40841 -2.717801,-2.33292 -0.318911,0.0152 -1.056569,0.0723 -1.424869,0.51259 -0.213078,0.25188 -0.277283,0.51576 -0.454025,1.11196 -0.05186,0.1785 0.739069,-0.68298 1.578328,-0.7874 1.217087,-0.15276 1.902887,0.24623 2.026007,1.27388 l 0.008,1.41322 c -0.26246,-0.0688 -0.52811,-0.10653 -0.78987,-0.10653 m 0.80434,2.66135 v 0.10372 c -0.005,0.54963 -0.11642,0.98354 -0.33691,1.29857 -0.47872,0.64382 -1.346199,0.57503 -1.842204,0.0247 -0.643467,-0.70838 -0.527756,-2.11702 0.08502,-2.81128 0.340783,-0.37642 0.817033,-0.56551 1.428754,-0.56551 0.1785,0 0.4004,0.0194 0.65475,0.0512 z m 9.57297,-0.88441 v -0.004 l 0.0113,1.74448 c 0.0219,0.84737 0.25718,1.41676 1.36278,1.55117 l 0.0367,0.22754 c -0.007,0.0205 -2.03235,0.007 -2.29834,0.004 l 0.0113,-6.31755 c 0.004,-1.59843 0.71614,-2.40206 2.14277,-2.41441 0.0384,0 0.0727,0.006 0.11606,0.008 0.6156,0.0328 1.12819,0.24589 1.53635,0.73448 0.42051,0.4886 0.62653,1.03647 0.62653,1.65524 0,0.70555 -0.2547,1.65311 -0.76694,2.15794 -0.496,0.50447 -1.15922,0.75847 -1.98719,0.75847 -0.26282,0 -0.52846,-0.037 -0.79128,-0.10513 m -0.003,-0.65687 c 0.25223,0.0325 0.47625,0.0519 0.65369,0.0519 0.61207,0 1.08832,-0.18944 1.42981,-0.56656 0.34079,-0.38664 0.51329,-1.1684 0.51329,-1.66476 0,-0.44661 -0.14287,-0.83185 -0.42933,-1.14617 -0.49565,-0.55104 -1.36313,-0.61913 -1.8422,0.0254 -0.22543,0.32279 -0.33691,0.77046 -0.33691,1.33879 z m -6.02227,4.18712 -1.71803,0.002 -0.008,-6.06989 c -7.4e-4,-0.59592 -0.096,-1.03019 -0.21205,-1.31347 -0.1203,-0.30727 -0.31115,-0.56409 -0.6283,-0.76976 0.65829,0.12876 1.07809,0.39793 1.31128,0.74013 0.23601,0.34396 0.3937,0.96837 0.3937,1.8669 v 3.50485 c 0,0.59619 0.0818,1.02728 0.24765,1.28199 0.10865,0.17815 0.31856,0.31256 0.61418,0.4064 0.001,-1.34514 0.001,-2.89172 -0.007,-4.34199 -0.0109,-2.02459 0.11818,-3.88091 -0.48789,-4.54942 -0.32314,-0.35631 -0.79798,-0.44203 -0.94227,-0.47343 v 0.40675 c -0.52705,-0.46848 -0.0759,-1.24107 0.59937,-1.17404 0.82056,-0.70661 2.20345,-0.3048 2.79435,0.49847 0.46496,0.48472 0.60572,1.54623 0.60537,2.75979 l -0.003,6.88269 c 0.29739,-0.0949 0.50694,-0.22895 0.61525,-0.40746 0.16651,-0.25506 0.248,-0.68474 0.248,-1.28199 v -3.50557 c 0,-0.89852 0.11641,-1.52576 0.35242,-1.87042 0.22261,-0.32774 0.66005,-0.5588 1.276,-0.68933 v 0.0363 c -0.27658,0.19333 -0.47519,0.42087 -0.59267,0.68369 -0.11606,0.28292 -0.17004,0.72107 -0.17109,1.31656 l -0.009,6.05967 h -1.71909 l -3.4e-4,2.57492 h -0.86113 c 0.004,-1.64853 0.002,-10.41788 -0.001,-10.41647 -0.0624,-1.30563 -0.29704,-2.05916 -1.21709,-2.30681 -0.34466,-0.0938 -0.73801,-0.0607 -1.05868,0.10125 1.16028,0.3048 1.43263,1.32715 1.43051,3.37925 l -0.008,9.24278 h -0.84772 c 0.001,-0.61559 0.003,-1.54058 0.005,-2.57422"
       style="fill:#9c9d9f;fill-opacity:1;fill-rule:evenodd;stroke:none;stroke-width:0.352777"
       id="path38" />
  </g>
</svg>
