<?xml version="1.0" encoding="UTF-8" standalone="no"?>
<svg
   xmlns:dc="http://purl.org/dc/elements/1.1/"
   xmlns:cc="http://creativecommons.org/ns#"
   xmlns:rdf="http://www.w3.org/1999/02/22-rdf-syntax-ns#"
   xmlns:svg="http://www.w3.org/2000/svg"
   xmlns="http://www.w3.org/2000/svg"
   xmlns:sodipodi="http://sodipodi.sourceforge.net/DTD/sodipodi-0.dtd"
   xmlns:inkscape="http://www.inkscape.org/namespaces/inkscape"
   sodipodi:docname="logo-white.svg"
   inkscape:version="1.0 (4035a4fb49, 2020-05-01)"
   id="svg46"
   version="1.1"
   viewBox="0 0 64.109985 50.955818"
   height="50.955818mm"
   width="64.109985mm">
  <defs
     id="defs40" />
  <sodipodi:namedview
     inkscape:window-maximized="0"
     inkscape:window-y="0"
     inkscape:window-x="32"
     inkscape:window-height="1030"
     inkscape:window-width="1661"
     fit-margin-bottom="0"
     fit-margin-right="0"
     fit-margin-left="0"
     fit-margin-top="0"
     lock-margins="true"
     showgrid="false"
     inkscape:document-rotation="0"
     inkscape:current-layer="layer1"
     inkscape:document-units="mm"
     inkscape:cy="51.21708"
     inkscape:cx="517.36663"
     inkscape:zoom="0.98994949"
     inkscape:pageshadow="2"
     inkscape:pageopacity="0.0"
     borderopacity="1.0"
     bordercolor="#666666"
     pagecolor="#ffffff"
     id="base" />
  <metadata
     id="metadata43">
    <rdf:RDF>
      <cc:Work
         rdf:about="">
        <dc:format>image/svg+xml</dc:format>
        <dc:type
           rdf:resource="http://purl.org/dc/dcmitype/StillImage" />
        <dc:title></dc:title>
      </cc:Work>
    </rdf:RDF>
  </metadata>
  <g
     transform="translate(-22.990599,-134.58087)"
     id="layer1"
     inkscape:groupmode="layer"
     inkscape:label="Warstwa 1">
    <path
       id="path60"
       style="fill:#008a5c;fill-opacity:1;fill-rule:nonzero;stroke:none;stroke-width:0.352778"
       d="m 87.100585,136.59177 v 47.56079 h -1.1926 v -47.56079 z m -41.213474,5.72982 19.563785,43.2151 H 79.6895 v -1.38451 h -1.74699 c -2.15452,0 -3.66522,-0.6446 -4.562616,-1.93492 -0.517913,-0.78708 -0.786307,-2.61218 -0.786307,-5.4277 v -32.86597 c 0,-3.08381 0.347098,-5.00341 1.023091,-5.75832 0.912001,-1.054 2.359307,-1.5735 4.325832,-1.5735 h 1.74699 v -1.38458 H 58.355582 v 1.38458 h 1.747097 c 2.154131,0 3.664514,0.6453 4.515132,1.93499 0.566385,0.77152 0.833085,2.56473 0.833085,5.39683 v 33.6363 L 45.887111,134.58087 Z" />
    <path
       id="path62"
       style="fill:#3ca576;fill-opacity:1;fill-rule:evenodd;stroke:none;stroke-width:0.352778"
       d="m 31.401879,159.44426 v 17.37659 c 0,3.08233 0.362514,4.99022 1.023126,5.75762 0.896091,1.04119 2.328404,1.57371 4.325796,1.57371 h 1.747097 v 1.38451 H 22.990599 v -1.38451 h 1.794404 c 2.124075,0 3.619288,-0.6574 4.515202,-1.93492 0.5479,-0.78168 0.833579,-2.5648 0.833579,-5.39641 v -17.37659 z m 21.392126,25.93301 c -4.891299,-10.7012 -15.367493,-48.7855 -29.803406,-48.7855 v -1.38458 h 14.239204 l 15.564202,33.52609 z" />
    <path
       transform="matrix(0.26458333,0,0,0.26458333,22.990599,134.58087)"
       id="path155"
       d="M 160.44315,190.87067 C 160.19077,190.45398 143.55892,153.819 123.48348,109.4596 L 86.98269,28.80613 87.264708,16.180429 87.546726,3.5547283 123.27741,82.18668 c 19.65188,43.24757 36.13,79.06379 36.61803,79.5916 1.3337,1.44236 1.14213,-135.537684 -0.19828,-141.787832 -1.8063,-8.422461 -9.6786,-13.2200799 -21.69253,-13.2200799 -2.81238,0 -3.48581,-0.390309 -3.48581,-2.0203051 0,-1.98577 0.67343,-2.0203051 39.39595,-2.0203051 38.72251,0 39.39595,0.034535 39.39595,2.0203051 0,1.6299961 -0.67344,2.0203051 -3.48582,2.0203051 -6.93929,0 -13.87204,2.1616539 -17.37228,5.4167329 -2.6599,2.473595 -3.63579,4.428469 -4.44438,8.902837 -0.66465,3.677821 -0.93219,32.287901 -0.74626,79.802052 0.28074,71.7404 0.35336,74.19579 2.31015,78.10939 2.78772,5.57543 8.88449,8.58629 17.38664,8.58629 5.67851,0 6.35195,0.2142 6.35195,2.02031 0,1.96838 -0.67344,2.0203 -26.20435,2.0203 -14.41239,0 -26.41084,-0.34092 -26.66322,-0.75761 z"
       style="fill:#ffffff;stroke-width:1.01015" />
    <path
       transform="matrix(0.26458333,0,0,0.26458333,22.990599,134.58087)"
       id="path157"
       d="m 110.96547,187.0826 c -0.4537,-1.11117 -5.57993,-14.65805 -11.391615,-30.10418 C 85.57045,119.76057 80.174651,106.32931 71.695178,87.582572 49.223232,37.90077 28.230559,12.424103 5.9769082,7.8270103 1.3277803,6.8666071 0.16853105,6.2382093 0.16853105,4.6784454 c 0,-1.8754905 0.99937095,-1.9486875 26.60577695,-1.9486875 h 26.605776 l 29.47318,63.4934931 29.473176,63.493489 -0.26803,29.69308 c -0.14998,16.61532 -0.63134,28.80328 -1.09294,27.67278 z"
       style="fill:#ffffff;stroke-width:1.01015" />
    <path
       transform="matrix(0.26458333,0,0,0.26458333,22.990599,134.58087)"
       id="path159"
       d="m 0.16853105,189.60798 c 0,-1.82347 0.67343507,-2.02031 6.91218725,-2.02031 8.8627677,0 14.7276927,-2.84897 17.7583127,-8.62637 2.005167,-3.82253 2.112578,-5.78719 2.413978,-44.1541 0.30232,-38.484125 0.394228,-40.15356 2.210584,-40.15356 1.816827,0 1.908159,1.680326 2.209946,40.65864 0.299333,38.66124 0.415182,40.83233 2.358213,44.19417 2.931824,5.07267 9.396082,8.08122 17.363524,8.08122 5.678515,0 6.35195,0.2142 6.35195,2.02031 0,1.97304 -0.673435,2.0203 -28.789347,2.0203 -28.11591288,0 -28.78934795,-0.0473 -28.78934795,-2.0203 z"
       style="fill:#ffffff;stroke-width:1.01015" />
    <path
       transform="matrix(0.26458333,0,0,0.26458333,22.990599,134.58087)"
       id="path161"
       d="m 242.07862,97.179021 c 6e-5,-49.446967 0.12326,-69.527384 0.27377,-44.623148 0.15051,24.904236 0.15046,65.360847 -1.1e-4,89.903577 -0.15058,24.54273 -0.27372,4.16654 -0.27366,-45.280429 z"
       style="fill:#ffffff;stroke-width:1.01015" />
    <path
       transform="matrix(0.26458333,0,0,0.26458333,22.990599,134.58087)"
       id="path163"
       d="m 238.56453,97.179021 c 0,-78.791899 0.17977,-89.3985004 1.51523,-89.3985004 1.33546,0 1.51523,10.6066014 1.51523,89.3985004 0,78.791899 -0.17977,89.398499 -1.51523,89.398499 -1.33546,0 -1.51523,-10.6066 -1.51523,-89.398499 z"
       style="fill:#ffffff;stroke-width:1.01015" />
  </g>
</svg>
