<?xml version="1.0" encoding="UTF-8" standalone="no"?>
<svg
   xmlns:dc="http://purl.org/dc/elements/1.1/"
   xmlns:cc="http://creativecommons.org/ns#"
   xmlns:rdf="http://www.w3.org/1999/02/22-rdf-syntax-ns#"
   xmlns:svg="http://www.w3.org/2000/svg"
   xmlns="http://www.w3.org/2000/svg"
   xmlns:sodipodi="http://sodipodi.sourceforge.net/DTD/sodipodi-0.dtd"
   xmlns:inkscape="http://www.inkscape.org/namespaces/inkscape"
   sodipodi:docname="logo-kolor-napis.svg"
   inkscape:version="1.0 (4035a4fb49, 2020-05-01)"
   id="svg77"
   version="1.1"
   viewBox="0 0 226.22459 66.697998"
   height="66.697998mm"
   width="226.22459mm">
  <defs
     id="defs71" />
  <sodipodi:namedview
     inkscape:window-maximized="0"
     inkscape:window-y="0"
     inkscape:window-x="160"
     inkscape:window-height="1030"
     inkscape:window-width="1661"
     fit-margin-bottom="0"
     fit-margin-right="0"
     fit-margin-left="0"
     fit-margin-top="0"
     showgrid="false"
     inkscape:document-rotation="0"
     inkscape:current-layer="layer1"
     inkscape:document-units="mm"
     inkscape:cy="511.75775"
     inkscape:cx="710.36822"
     inkscape:zoom="0.35"
     inkscape:pageshadow="2"
     inkscape:pageopacity="0.0"
     borderopacity="1.0"
     bordercolor="#666666"
     pagecolor="#ffffff"
     id="base" />
  <metadata
     id="metadata74">
    <rdf:RDF>
      <cc:Work
         rdf:about="">
        <dc:format>image/svg+xml</dc:format>
        <dc:type
           rdf:resource="http://purl.org/dc/dcmitype/StillImage" />
        <dc:title></dc:title>
      </cc:Work>
    </rdf:RDF>
  </metadata>
  <g
     transform="translate(82.118257,-12.764096)"
     id="layer1"
     inkscape:groupmode="layer"
     inkscape:label="Warstwa 1">
    <g
       id="g87"
       inkscape:label="wieczorek-logo"
       transform="matrix(0.35277777,0,0,-0.35277777,-117.50596,112.0776)">
      <path
         d="M 349.7618,171.1672 324.21,226.7759 V 182.611 c 0,-4.0487 0.4522,-6.5682 1.3428,-7.5606 1.1549,-1.383 3.0566,-2.0653 5.6778,-2.0653 h 2.2949 v -1.8179 h -22.9906 v 1.8179 h 2.353 c 2.7907,0 4.7718,0.8467 5.9304,2.5407 0.7441,1.0125 1.0944,3.3678 1.0944,7.0852 v 43.1527 c 0,2.9324 -0.3107,5.0601 -0.9708,6.3405 -0.4346,0.9303 -1.2822,1.7155 -2.4999,2.3553 -1.2402,0.6619 -3.2003,0.9717 -5.9071,0.9717 v 1.8176 h 18.6933 l 24.0242,-51.7456 23.55,51.7456 h 18.6922 v -1.8176 h -2.293 c -2.8275,0 -4.8126,-0.847 -5.9904,-2.5415 -0.6812,-1.0327 -1.0301,-3.4291 -1.0301,-7.126 V 182.611 c 0,-4.0487 0.4521,-6.5682 1.3425,-7.5606 1.1956,-1.383 3.0982,-2.0653 5.678,-2.0653 h 2.293 v -1.8179 H 367.484 v 1.8179 h 2.295 c 2.8301,0 4.8123,0.8467 5.9264,2.5407 0.7435,1.0125 1.097,3.3678 1.097,7.0852 v 44.1649 l -25.4722,-55.6087 z m 99.6795,106.4404 v -5.733 h 4.0785 V 270.54 h -4.0785 v -11.3295 c 0,-1.1325 0.1607,-1.8938 0.4867,-2.2847 0.3195,-0.3958 0.7353,-0.5913 1.2424,-0.5913 0.4249,0 0.8258,0.1298 1.2235,0.39 0.39,0.2605 0.6973,0.6438 0.9192,1.1523 h 0.7427 c -0.451,-1.2424 -1.0743,-2.1793 -1.8879,-2.8114 -0.8152,-0.631 -1.6551,-0.9434 -2.5177,-0.9434 -0.5868,0 -1.1594,0.1627 -1.7212,0.4876 -0.5579,0.3257 -0.9683,0.7877 -1.2356,1.3932 -0.2656,0.599 -0.404,1.5287 -0.404,2.7916 V 270.54 h -2.7589 v 0.625 c 0.6973,0.2793 1.4139,0.7543 2.1424,1.4193 0.7294,0.6693 1.3853,1.4639 1.9508,2.3755 0.2945,0.4805 0.7024,1.3654 1.2237,2.6478 z m -12.5067,-20.6818 c -1.7907,-1.3848 -2.9166,-2.1861 -3.3795,-2.4001 -0.6823,-0.3189 -1.4117,-0.4819 -2.1869,-0.4819 -1.2107,0 -2.2054,0.4164 -2.9846,1.2427 -0.781,0.8271 -1.1727,1.9134 -1.1727,3.2604 0,0.8529 0.1873,1.5874 0.574,2.2119 0.5193,0.8589 1.4233,1.673 2.7122,2.4415 1.2892,0.7599 3.4375,1.6849 6.4375,2.7779 v 0.6902 c 0,1.7371 -0.2742,2.9347 -0.8289,3.5853 -0.5533,0.644 -1.3586,0.9697 -2.4128,0.9697 -0.8008,0 -1.4398,-0.2148 -1.9066,-0.6505 -0.4819,-0.4303 -0.7234,-0.9247 -0.7234,-1.4834 l 0.038,-1.1069 c 0,-0.5848 -0.1477,-1.0347 -0.4476,-1.3536 -0.2982,-0.3191 -0.6889,-0.4756 -1.1727,-0.4756 -0.4737,0 -0.8575,0.1635 -1.1563,0.4946 -0.3013,0.3328 -0.4501,0.7815 -0.4501,1.3539 0,1.0941 0.5601,2.0956 1.6789,3.0132 1.1194,0.9113 2.6893,1.3731 4.7126,1.3731 1.5494,0 2.818,-0.2602 3.8123,-0.781 0.7481,-0.3971 1.302,-1.0148 1.6594,-1.8549 0.2288,-0.5466 0.3379,-1.6589 0.3379,-3.3506 v -5.9292 c 0,-1.6657 0.0329,-2.6876 0.0993,-3.0648 0.0654,-0.3708 0.168,-0.6242 0.3115,-0.7478 0.1511,-0.1299 0.3186,-0.1956 0.5071,-0.1956 0.2018,0 0.3841,0.0453 0.5332,0.1375 0.2684,0.1624 0.7824,0.6307 1.5437,1.3909 v -1.0669 c -1.4193,-1.9052 -2.7793,-2.863 -4.0804,-2.863 -0.6197,0 -1.1126,0.2151 -1.484,0.6514 -0.371,0.4297 -0.5601,1.1704 -0.5711,2.2116 z m 0,1.237 v 6.6577 c -1.9219,-0.7684 -3.1567,-1.3082 -3.718,-1.6202 -1.0068,-0.5605 -1.7246,-1.1455 -2.1537,-1.7578 -0.4354,-0.6109 -0.6495,-1.275 -0.6495,-2.0041 0,-0.9111 0.2725,-1.6727 0.8195,-2.2779 0.5468,-0.5987 1.1778,-0.904 1.8874,-0.904 0.9705,0 2.239,0.6381 3.8143,1.9063 z m -24.2553,23.3558 v -17.3687 l 4.4462,4.0407 c 0.9422,0.8663 1.4893,1.4125 1.6398,1.6396 0.1024,0.1565 0.1494,0.3073 0.1494,0.4564 0,0.2605 -0.1054,0.4754 -0.3141,0.663 -0.2083,0.1826 -0.553,0.2863 -1.0406,0.3127 v 0.6123 h 7.5875 v -0.6123 c -1.0394,-0.0264 -1.9068,-0.1823 -2.5954,-0.4743 -0.6964,-0.2931 -1.4578,-0.8135 -2.285,-1.5681 l -4.4756,-4.1332 4.4756,-5.6608 c 1.249,-1.5684 2.0886,-2.5577 2.5178,-2.9809 0.6122,-0.5921 1.1451,-0.9822 1.601,-1.1585 0.3211,-0.1304 0.8725,-0.1948 1.6605,-0.1948 v -0.684 H 417.56 v 0.684 c 0.4876,0.0125 0.8153,0.0905 0.9822,0.2203 0.1752,0.1375 0.26,0.3195 0.26,0.5672 0,0.2923 -0.252,0.7605 -0.76,1.4057 l -5.3629,6.8454 v -5.7923 c 0,-1.131 0.0856,-1.8808 0.2407,-2.2314 0.1565,-0.3572 0.3849,-0.612 0.6772,-0.7614 0.2928,-0.1559 0.9298,-0.241 1.9066,-0.2535 v -0.684 h -8.8824 v 0.684 c 0.8915,0 1.556,0.1106 1.9973,0.3249 0.2667,0.1434 0.4762,0.3583 0.612,0.6505 0.1894,0.4165 0.2863,1.1452 0.2863,2.1739 v 15.8976 c 0,2.0234 -0.0465,3.261 -0.1298,3.7097 -0.0904,0.4479 -0.2398,0.7602 -0.4445,0.9371 -0.201,0.1687 -0.4666,0.2534 -0.7982,0.2534 -0.2673,0 -0.6628,-0.1037 -1.1982,-0.3259 l -0.3249,0.6715 5.186,2.1342 z m -16.1458,-9.1304 c 2.6427,0 4.7656,-1.0083 6.3723,-3.0124 1.3606,-1.7181 2.0361,-3.6907 2.0361,-5.9102 0,-1.5665 -0.377,-3.149 -1.1268,-4.7492 -0.7478,-1.6016 -1.7818,-2.8108 -3.0957,-3.6247 -1.315,-0.8138 -2.7797,-1.2177 -4.3948,-1.2177 -2.6337,0 -4.7231,1.048 -6.2725,3.1436 -1.3082,1.7702 -1.9647,3.7551 -1.9647,5.9482 0,1.6067 0.3974,3.1944 1.1919,4.7761 0.792,1.5815 1.8414,2.753 3.1357,3.5079 1.296,0.7614 2.6674,1.1384 4.1185,1.1384 z m -0.5922,-1.2427 c -0.6698,0 -1.3464,-0.1959 -2.0287,-0.5984 -0.6784,-0.4045 -1.2317,-1.1001 -1.6481,-2.1087 -0.4221,-1.0029 -0.6301,-2.2904 -0.6301,-3.8659 0,-2.5432 0.5071,-4.737 1.5154,-6.5798 1.0111,-1.8408 2.3439,-2.764 3.9954,-2.764 1.2317,0 2.2459,0.5068 3.0538,1.5219 0.7985,1.0222 1.1956,2.766 1.1956,5.2452 0,3.1045 -0.6644,5.5443 -2.0035,7.3211 -0.8972,1.2231 -2.0495,1.8286 -3.4498,1.8286 z m -37.1157,0.7291 h 7.3188 v -0.7096 c -0.6713,-0.0524 -1.1126,-0.1689 -1.3275,-0.3577 -0.2083,-0.1964 -0.3121,-0.4688 -0.3121,-0.8206 0,-0.396 0.1109,-0.8714 0.3263,-1.4315 l 3.7355,-10.0471 3.7548,8.1799 -0.9905,2.5699 c -0.3067,0.7617 -0.7015,1.2892 -1.2041,1.582 -0.2792,0.1823 -0.7985,0.2869 -1.5602,0.3251 v 0.7096 h 8.3151 v -0.7096 c -0.9164,-0.0382 -1.5684,-0.2018 -1.9462,-0.4949 -0.2523,-0.201 -0.3836,-0.5275 -0.3836,-0.9697 0,-0.2534 0.0519,-0.5137 0.1562,-0.781 l 3.9629,-10.0346 3.6768,9.6704 c 0.2542,0.6831 0.3852,1.2302 0.3852,1.6398 0,0.2404 -0.1239,0.4558 -0.3716,0.6449 -0.2463,0.1947 -0.7353,0.2988 -1.4573,0.3251 v 0.7096 h 5.5043 v -0.7096 c -1.1047,-0.163 -1.9176,-0.9113 -2.4386,-2.2456 l -5.8312,-15.0454 h -0.7815 l -4.3656,11.1552 -5.0911,-11.1552 h -0.7078 l -5.6041,14.6812 c -0.3685,0.9244 -0.7293,1.5556 -1.0868,1.874 -0.3577,0.3262 -0.9164,0.5728 -1.6761,0.7358 z m -6.2155,-15.5007 c -0.8524,-0.8918 -1.6866,-1.5299 -2.499,-1.9205 -0.8139,-0.3835 -1.6918,-0.5794 -2.6286,-0.5794 -1.9086,0 -3.5742,0.8011 -5,2.3958 -1.4179,1.5931 -2.1331,3.6442 -2.1331,6.1427 0,2.5053 0.7877,4.7959 2.3683,6.8783 1.5755,2.0749 3.5986,3.1164 6.0769,3.1164 1.537,0 2.8112,-0.4944 3.8155,-1.4701 v 3.221 c 0,1.9985 -0.0471,3.2222 -0.1454,3.6839 -0.0973,0.4542 -0.2464,0.7665 -0.4482,0.9298 -0.2013,0.1701 -0.4561,0.248 -0.7611,0.248 -0.3319,0 -0.769,-0.0972 -1.3153,-0.3069 l -0.2449,0.6715 5.2039,2.1342 h 0.8532 V 261.326 c 0,-2.0435 0.0507,-3.2933 0.1428,-3.742 0.0981,-0.455 0.2481,-0.7674 0.4629,-0.9443 0.2067,-0.1825 0.4547,-0.2658 0.7286,-0.2658 0.3449,0 0.8056,0.104 1.3725,0.3248 l 0.2149,-0.6695 -5.186,-2.1552 h -0.8779 z m 0,1.3328 v 9.0003 c -0.0797,0.8589 -0.3053,1.6537 -0.6852,2.363 -0.3821,0.7083 -0.8917,1.2497 -1.5148,1.6072 -0.6301,0.3645 -1.2441,0.5462 -1.8417,0.5462 -1.1188,0 -2.116,-0.5011 -2.9945,-1.5029 -1.1576,-1.328 -1.7368,-3.2547 -1.7368,-5.7983 0,-2.5699 0.5587,-4.5357 1.6781,-5.9031 1.1192,-1.3657 2.3616,-2.0492 3.7355,-2.0492 1.1594,0 2.2768,0.5794 3.3594,1.7368 z m -23.8901,5.3564 h -10.0083 l -1.7498,-4.0808 c -0.4366,-1.0018 -0.652,-1.7498 -0.652,-2.2507 0,-0.3903 0.1905,-0.7359 0.5601,-1.0341 0.377,-0.3002 1.1852,-0.4952 2.4333,-0.5868 v -0.703 h -8.1397 v 0.703 c 1.0791,0.1962 1.7753,0.4422 2.0959,0.7484 0.6492,0.6052 1.3658,1.8476 2.1529,3.7162 l 9.0978,21.2732 h 0.6645 l 8.9977,-21.5008 c 0.7248,-1.7311 1.3822,-2.8505 1.9726,-3.3639 0.5933,-0.5156 1.4179,-0.807 2.4744,-0.8731 v -0.703 H 328.413 v 0.703 c 1.029,0.0522 1.7251,0.2277 2.0894,0.5208 0.3645,0.286 0.5468,0.6437 0.5468,1.0672 0,0.5601 -0.2591,1.4386 -0.7662,2.649 z m -0.5324,1.4125 -4.388,10.4442 -4.4963,-10.4442 z M 707.4524,163.2657 v -44.3716 l 11.3199,10.2881 c 2.4177,2.2297 3.8013,3.6153 4.1735,4.1726 0.2894,0.4124 0.4317,0.8061 0.4317,1.2183 0,0.6409 -0.2892,1.1985 -0.826,1.6532 -0.5358,0.4736 -1.4236,0.7426 -2.6215,0.826 v 1.5089 h 19.3535 v -1.5089 c -2.6628,-0.0834 -4.8727,-0.4958 -6.6509,-1.2399 -1.7753,-0.7438 -3.7168,-2.086 -5.8028,-4.0275 l -11.4455,-10.5358 11.4455,-14.4592 c 3.181,-3.9864 5.3073,-6.5273 6.4029,-7.6224 1.5681,-1.5287 2.9523,-2.5203 4.1111,-2.9741 0.8042,-0.3107 2.2289,-0.4754 4.2344,-0.4754 V 93.9626 H 719.93 v 1.7554 c 1.1979,0.0411 2.0228,0.2277 2.4777,0.578 0.4329,0.3303 0.6622,0.8054 0.6622,1.4253 0,0.7642 -0.64,1.9627 -1.942,3.6144 l -13.6755,17.4972 v -14.8326 c 0,-2.8919 0.2073,-4.8121 0.599,-5.72 0.4133,-0.8895 0.993,-1.5497 1.7357,-1.9222 0.7421,-0.392 2.3748,-0.599 4.8738,-0.6401 V 93.9626 H 691.96 v 1.7554 c 2.2524,0 3.9441,0.2895 5.0814,0.847 0.6808,0.3711 1.2174,0.9083 1.5712,1.6314 0.4961,1.0944 0.722,2.9537 0.722,5.5786 v 40.5898 c 0,5.1645 -0.1046,8.3248 -0.332,9.4813 -0.2063,1.156 -0.5779,1.9412 -1.1148,2.3959 -0.5162,0.4343 -1.1974,0.6619 -2.0438,0.6619 -0.7027,0 -1.7138,-0.2889 -3.0994,-0.8484 l -0.7846,1.7563 13.2621,5.4539 z m -50.0493,-41.459 c 0,-6.6713 1.6095,-11.8772 4.8328,-15.6158 3.2632,-3.7601 7.0838,-5.6398 11.4429,-5.6398 2.933,0 5.4958,0.8053 7.6436,2.3961 2.1691,1.5906 3.9665,4.3589 5.4334,8.2633 l 1.5084,-0.9714 c -0.6832,-4.4411 -2.6655,-8.4892 -5.9304,-12.166 -3.2627,-3.6771 -7.395,-5.495 -12.3525,-5.495 -5.37,0 -9.9562,2.0869 -13.7577,6.2595 -3.8222,4.1729 -5.7203,9.7908 -5.7203,16.8553 0,7.6216 1.9403,13.5715 5.8671,17.847 3.9025,4.2769 8.8399,6.4247 14.7685,6.4247 4.9995,0 9.1083,-1.6517 12.3112,-4.9371 3.2003,-3.2851 4.8141,-7.704 4.8141,-13.2208 z m 0,2.7686 h 20.698 c -0.1661,2.8715 -0.5168,4.8963 -1.0346,6.052 -0.8042,1.8184 -2.0231,3.2646 -3.6355,4.2976 -1.6098,1.0536 -3.2842,1.5902 -5.0181,1.5902 -2.7071,0 -5.1245,-1.0531 -7.2715,-3.1603 -2.1288,-2.086 -3.3877,-5.0208 -3.7383,-8.7795 z m -27.6599,15.3281 v -10.061 c 3.7593,6.7141 7.5812,10.061 11.5058,10.061 1.8167,0 3.3044,-0.5576 4.4413,-1.6336 1.1546,-1.0942 1.7328,-2.3548 1.7328,-3.7582 0,-1.302 -0.4124,-2.3754 -1.237,-3.2428 -0.826,-0.8689 -1.8383,-1.3017 -2.9976,-1.3017 -1.1753,0 -2.4761,0.5576 -3.8832,1.6727 -1.4029,1.0945 -2.4372,1.652 -3.0756,1.652 -0.6208,0 -1.2603,-0.3095 -1.944,-0.9697 -1.4437,-1.3221 -2.9738,-3.4917 -4.5425,-6.5276 v -21.4211 c 0,-2.4591 0.3299,-4.3181 0.9697,-5.5783 0.4142,-0.8876 1.1356,-1.6113 2.2108,-2.2099 1.0732,-0.5777 2.6223,-0.8672 4.6267,-0.8672 v -1.7554 h -22.805 v 1.7554 c 2.2504,0 3.9234,0.3717 5.0207,1.0948 0.8056,0.5159 1.3615,1.3428 1.6937,2.478 0.165,0.5165 0.2474,2.0869 0.2474,4.7095 v 17.3118 c 0,5.1633 -0.1026,8.2621 -0.3095,9.2539 -0.2072,1.0123 -0.578,1.7354 -1.1577,2.1887 -0.5573,0.4345 -1.2591,0.6619 -2.107,0.6619 -1.0125,0 -2.1489,-0.2481 -3.3876,-0.7234 l -0.5588,1.7563 13.5103,5.4539 z m -41.0888,0 c 6.7754,0 12.2083,-2.562 16.278,-7.6853 3.4704,-4.4002 5.2075,-9.44 5.2075,-15.1416 0,-3.9863 -0.9507,-8.0348 -2.8726,-12.1048 -1.9222,-4.0682 -4.5457,-7.1467 -7.8922,-9.2537 -3.3676,-2.1069 -7.104,-3.1399 -11.2561,-3.1399 -6.7145,0 -12.0433,2.6649 -16.0518,8.0351 -3.3055,4.5247 -4.9561,9.5848 -4.9561,15.2045 0,4.1096 1.0109,8.1791 3.0356,12.2071 2.0024,4.0493 4.669,7.0234 7.9747,8.966 3.305,1.9411 6.8157,2.9126 10.533,2.9126 z m -1.5055,-3.1609 c -1.6945,0 -3.4319,-0.5162 -5.1851,-1.5285 -1.7566,-1.0329 -3.162,-2.8304 -4.2347,-5.3918 -1.0754,-2.5616 -1.593,-5.866 -1.593,-9.8949 0,-6.5072 1.2807,-12.1047 3.8647,-16.7941 2.581,-4.7095 5.9905,-7.0435 10.2246,-7.0435 3.1589,0 5.7413,1.2809 7.7882,3.863 2.0233,2.5824 3.056,7.0438 3.056,13.3852 0,7.9316 -1.6945,14.1908 -5.0808,18.7563 -2.3142,3.0994 -5.2478,4.6483 -8.8399,4.6483 z M 561.2862,107.6363 560.749,93.9626 h -39.3295 v 1.7554 l 29.5786,39.4552 h -14.5825 c -3.1399,0 -5.2075,-0.2072 -6.1781,-0.6001 -0.9479,-0.4122 -1.7742,-1.1767 -2.4154,-2.2918 -0.8476,-1.6744 -1.3439,-3.6785 -1.5095,-6.0542 h -1.9411 l 0.3106,12.3341 h 37.389 v -1.7567 L 532.1809,97.2252 h 16.2763 c 3.3879,0 5.703,0.2906 6.9412,0.8479 1.2177,0.578 2.2107,1.5698 2.933,3.0353 0.5176,1.0125 0.9725,3.1825 1.3232,6.5279 z m -45.1559,3.265 c -1.1976,-5.8882 -3.5731,-10.4117 -7.0634,-13.5726 -3.5121,-3.1805 -7.3964,-4.7506 -11.6305,-4.7506 -5.0811,0 -9.5015,2.1277 -13.2815,6.3825 -3.782,4.2551 -5.6616,10.0182 -5.6616,17.2689 0,7.024 2.0863,12.7251 6.2603,17.1049 4.1729,4.3781 9.1908,6.569 15.0361,6.569 4.4002,0 8.0169,-1.1787 10.8454,-3.492 2.8099,-2.314 4.2349,-4.7302 4.2349,-7.2292 0,-1.2399 -0.4141,-2.2516 -1.2197,-2.996 -0.8037,-0.7441 -1.9202,-1.1151 -3.3231,-1.1151 -1.9029,0 -3.3469,0.5984 -4.3594,1.8178 -0.5176,0.6823 -0.8668,1.9837 -1.0548,3.9042 -0.1842,1.9001 -0.8461,3.3678 -1.9613,4.3801 -1.178,0.9694 -2.747,1.4454 -4.7307,1.4454 -3.2627,0 -5.8873,-1.1772 -7.8695,-3.5527 -2.6238,-3.2026 -3.9249,-7.4165 -3.9249,-12.6632 0,-5.3291 1.3011,-10.0185 3.9028,-14.0885 2.6024,-4.0889 6.1372,-6.1137 10.6197,-6.1137 3.1807,0 6.0312,1.095 8.5283,3.2632 1.8198,1.4876 3.5541,4.193 5.2072,8.1176 z m -74.7352,10.9054 c 0,-6.6713 1.6121,-11.8772 4.834,-15.6158 3.2635,-3.7601 7.084,-5.6398 11.4426,-5.6398 2.9336,0 5.4952,0.8053 7.6445,2.3961 2.167,1.5906 3.9645,4.3589 5.4328,8.2633 l 1.5084,-0.9714 c -0.6838,-4.4411 -2.666,-8.4892 -5.929,-12.166 -3.2647,-3.6771 -7.3959,-5.495 -12.3522,-5.495 -5.3714,0 -9.9582,2.0869 -13.7594,6.2595 -3.8211,4.1729 -5.7212,9.7908 -5.7212,16.8553 0,7.6216 1.9418,13.5715 5.8677,17.847 3.9028,4.2769 8.8402,6.4247 14.7674,6.4247 5,0 9.11,-1.6517 12.3129,-4.9371 3.202,-3.2851 4.8138,-7.704 4.8138,-13.2208 z m 0,2.7686 h 20.6986 c -0.1655,2.8715 -0.5176,4.8963 -1.0338,6.052 -0.8039,1.8184 -2.0236,3.2646 -3.6362,4.2976 -1.6096,1.0536 -3.2834,1.5902 -5.0191,1.5902 -2.7056,0 -5.1233,-1.0531 -7.2697,-3.1603 -2.1277,-2.086 -3.388,-5.0208 -3.7398,-8.7795 z m -23.8583,38.6904 c 1.3847,0 2.5398,-0.4961 3.4914,-1.4678 0.9496,-0.9697 1.425,-2.1274 1.425,-3.5107 0,-1.3218 -0.4754,-2.4781 -1.425,-3.4699 -0.9516,-0.9919 -2.1067,-1.4876 -3.4914,-1.4876 -1.3635,0 -2.5401,0.4957 -3.5116,1.4876 -0.9728,0.9918 -1.4482,2.1481 -1.4482,3.4699 0,1.3833 0.4754,2.541 1.4267,3.5107 0.9507,0.9717 2.1274,1.4678 3.5331,1.4678 z m 4.0479,-23.3623 v -35.8399 c 0,-2.8097 0.2072,-4.689 0.6193,-5.5984 0.3929,-0.9085 0.993,-1.5905 1.7762,-2.0449 0.7852,-0.4745 2.2527,-0.7022 4.4019,-0.7022 v -1.7554 h -21.6703 v 1.7554 c 2.1697,0 3.6369,0.2073 4.3804,0.6401 0.7416,0.4136 1.3428,1.1152 1.7541,2.0857 0.4354,0.9718 0.6423,2.831 0.6423,5.6197 v 17.1856 c 0,4.8546 -0.1465,7.9745 -0.4362,9.3782 -0.2274,1.0539 -0.5981,1.777 -1.0721,2.1912 -0.4958,0.3911 -1.1577,0.5981 -2.0041,0.5981 -0.8875,0 -1.9822,-0.2481 -3.2644,-0.7234 l -0.7222,1.7563 13.4251,5.4539 z m -19.2935,20.1404 v -1.8184 c -1.7124,0 -3.0991,-0.309 -4.1938,-0.9303 -1.0727,-0.6188 -2.1053,-1.7765 -3.0762,-3.4903 -0.6401,-1.1152 -1.654,-3.8223 -3.0373,-8.0978 L 373.538,92.4534 h -1.9426 l -15.0579,42.2439 -14.9567,-42.2439 h -1.7564 l -19.603,54.824 c -1.4442,4.1114 -2.3746,6.5274 -2.7864,7.2715 -0.6424,1.2384 -1.5305,2.1685 -2.666,2.7674 -1.1163,0.6202 -2.6442,0.9091 -4.5451,0.9091 v 1.8184 h 24.459 v -1.8184 h -1.1574 c -1.7339,0 -3.0577,-0.3929 -3.967,-1.1781 -0.8881,-0.7849 -1.3425,-1.7135 -1.3425,-2.8077 0,-1.1376 0.7024,-3.7607 2.1084,-7.8721 l 13.013,-37.0366 10.9488,31.4807 -1.921,5.5559 -1.5914,4.4209 c -0.6806,1.6537 -1.4451,3.0784 -2.2941,4.297 -0.4121,0.6401 -0.9068,1.177 -1.5072,1.5702 -0.805,0.5986 -1.6327,1.0332 -2.4777,1.2809 -0.6211,0.1854 -1.592,0.2889 -2.914,0.2889 v 1.8184 h 25.7184 v -1.8184 h -1.7549 c -1.819,0 -3.1391,-0.3929 -3.9889,-1.1781 -0.8465,-0.7849 -1.2793,-1.838 -1.2793,-3.1805 0,-1.6523 0.7438,-4.5238 2.2518,-8.655 l 12.6411,-35.8809 12.5184,36.3761 c 1.4672,4.0281 2.1895,6.8171 2.1895,8.3458 0,0.7645 -0.2259,1.4658 -0.7027,2.1271 -0.455,0.6401 -1.0537,1.095 -1.7754,1.3844 -1.2605,0.4547 -2.8726,0.6611 -4.854,0.6611 v 1.8184 z m 128.9611,17.5485 c -4.5672,-3.5127 -7.4177,-5.5577 -8.5949,-6.1155 -1.7751,-0.8056 -3.6545,-1.2175 -5.6192,-1.2175 -3.0781,0 -5.5975,1.0534 -7.6016,3.1391 -2.0024,2.1073 -2.9946,4.8946 -2.9946,8.3665 0,2.1685 0.4743,4.0478 1.4451,5.6179 1.3445,2.232 3.6358,4.2959 6.9418,6.2382 3.2851,1.9418 8.7577,4.3169 16.4234,7.147 v 1.7561 c 0,4.4212 -0.7024,7.4786 -2.1291,9.1304 -1.4049,1.6523 -3.4503,2.4786 -6.1546,2.4786 -2.0262,0 -3.636,-0.5372 -4.8546,-1.6316 -1.2402,-1.1359 -1.8794,-2.3961 -1.8794,-3.8223 l 0.1247,-2.8289 c 0,-1.5075 -0.3727,-2.6439 -1.1375,-3.4504 -0.7659,-0.8061 -1.7547,-1.2183 -2.9741,-1.2183 -1.1985,0 -2.1923,0.4331 -2.9551,1.281 -0.7849,0.8464 -1.1574,1.9828 -1.1574,3.4492 0,2.7674 1.4275,5.3291 4.2973,7.6841 2.8726,2.3347 6.8783,3.5124 12.0447,3.5124 3.945,0 7.2079,-0.6823 9.7492,-2.004 1.8782,-1.0129 3.3058,-2.5827 4.2344,-4.7308 0.5573,-1.4037 0.847,-4.2752 0.847,-8.5929 v -15.1209 c 0,-4.2344 0.0833,-6.8377 0.2256,-7.8091 0.1661,-0.9698 0.4357,-1.6107 0.8263,-1.9406 0.3932,-0.3099 0.8286,-0.4751 1.3011,-0.4751 0.5165,0 0.9717,0.1244 1.3235,0.3503 0.7013,0.4136 2.0237,1.592 4.0068,3.5122 v -2.7051 c -3.6754,-4.8552 -7.1683,-7.2718 -10.4729,-7.2718 -1.5681,0 -2.8284,0.5369 -3.7797,1.6319 -0.9508,1.0945 -1.4451,2.9736 -1.4862,5.6399 z m 0,3.2011 v 17.0005 c -4.877,-1.9837 -8.0575,-3.3673 -9.5029,-4.1729 -2.5412,-1.4037 -4.3574,-2.9123 -5.4745,-4.4824 -1.116,-1.5695 -1.6722,-3.2638 -1.6722,-5.0822 0,-2.3341 0.7024,-4.2755 2.0863,-5.8451 1.4029,-1.5494 2.9931,-2.3139 4.8127,-2.3139 2.4579,0 5.7206,1.6319 9.7506,4.896 z m -40.0125,49.6797 v -14.707 h 10.4091 v -3.3879 H 491.2398 V 183.458 c 0,-2.9126 0.4125,-4.8756 1.2376,-5.8657 0.8261,-1.0123 1.9024,-1.5293 3.1811,-1.5293 1.0531,0 2.0863,0.3299 3.0983,1.0122 0.9921,0.6608 1.7974,1.6526 2.3558,2.9948 h 1.8788 c -1.1361,-3.2017 -2.745,-5.5973 -4.8115,-7.2096 -2.086,-1.611 -4.2134,-2.4163 -6.3833,-2.4163 -1.5495,0 -3.0169,0.4133 -4.4195,1.2393 -1.4276,0.8266 -2.4588,2.0044 -3.1615,3.5317 -0.6812,1.5497 -1.0114,3.9249 -1.0114,7.1481 v 30.015 h -7.0852 v 1.631 c 1.7753,0.6812 3.5921,1.9001 5.4728,3.6151 1.8797,1.7141 3.5331,3.7388 5.0001,6.0729 0.7633,1.2195 1.817,3.4702 3.1399,6.7759 z m -33.154,-13.3648 v -10.0604 c 3.7591,6.7136 7.5799,10.0604 11.5056,10.0604 1.8167,0 3.3046,-0.5572 4.4413,-1.6327 1.1554,-1.0947 1.7331,-2.355 1.7331,-3.7593 0,-1.3011 -0.4122,-2.3754 -1.237,-3.2426 -0.8278,-0.8682 -1.8383,-1.3011 -2.9971,-1.3011 -1.1772,0 -2.4775,0.5573 -3.8838,1.6725 -1.4025,1.0944 -2.4372,1.652 -3.0753,1.652 -0.6219,0 -1.2611,-0.3093 -1.9443,-0.9703 -1.4451,-1.3215 -2.9743,-3.4911 -4.5425,-6.5271 v -21.4214 c 0,-2.4587 0.3303,-4.3177 0.9683,-5.578 0.4139,-0.8878 1.137,-1.6109 2.2125,-2.2099 1.0743,-0.578 2.6237,-0.8671 4.6275,-0.8671 v -1.7561 h -22.8058 v 1.7561 c 2.2518,0 3.9228,0.3716 5.0201,1.0942 0.8056,0.517 1.3621,1.343 1.6923,2.4783 0.1656,0.5168 0.2475,2.0866 0.2475,4.7101 v 17.3114 c 0,5.1633 -0.1009,8.2619 -0.3079,9.2537 -0.2069,1.0123 -0.5779,1.7354 -1.1576,2.1892 -0.5576,0.434 -1.2592,0.6613 -2.107,0.6613 -1.0108,0 -2.1495,-0.248 -3.3874,-0.7231 l -0.5596,1.7561 13.5102,5.4538 z m -32.0788,-39.516 c -4.5663,-3.5127 -7.4171,-5.5577 -8.5938,-6.1155 -1.7779,-0.8056 -3.6578,-1.2175 -5.6208,-1.2175 -3.077,0 -5.5959,1.0534 -7.6003,3.1391 -2.0044,2.1073 -2.9956,4.8946 -2.9956,8.3665 0,2.1685 0.4753,4.0478 1.4462,5.6179 1.3425,2.232 3.6363,4.2959 6.9418,6.2382 3.2831,1.9418 8.7576,4.3169 16.4225,7.147 v 1.7561 c 0,4.4212 -0.7044,7.4786 -2.1294,9.1304 -1.4054,1.6523 -3.4492,2.4786 -6.1549,2.4786 -2.0247,0 -3.6374,-0.5372 -4.8551,-1.6316 -1.2399,-1.1359 -1.8803,-2.3961 -1.8803,-3.8223 l 0.1245,-2.8289 c 0,-1.5075 -0.3725,-2.6439 -1.1356,-3.4504 -0.7645,-0.8061 -1.756,-1.2183 -2.9741,-1.2183 -1.2002,0 -2.1903,0.4331 -2.9551,1.281 -0.7832,0.8464 -1.156,1.9828 -1.156,3.4492 0,2.7674 1.4259,5.3291 4.2959,7.6841 2.871,2.3347 6.88,3.5124 12.043,3.5124 3.9453,0 7.208,-0.6823 9.7504,-2.004 1.8799,-1.0129 3.3057,-2.5827 4.2349,-4.7308 0.5556,-1.4037 0.8453,-4.2752 0.8453,-8.5929 v -15.1209 c 0,-4.2344 0.0833,-6.8377 0.229,-7.8091 0.1656,-0.9698 0.4329,-1.6107 0.8241,-1.9406 0.3946,-0.3099 0.8274,-0.4751 1.3016,-0.4751 0.5179,0 0.9726,0.1244 1.3233,0.3503 0.7024,0.4136 2.0239,1.592 4.0084,3.5122 v -2.7051 c -3.6785,-4.8552 -7.1688,-7.2718 -10.4729,-7.2718 -1.5712,0 -2.8315,0.5369 -3.7819,1.6319 -0.9485,1.0945 -1.4443,2.9736 -1.4851,5.6399 z m 0,3.2011 v 17.0005 c -4.8773,-1.9837 -8.0578,-3.3673 -9.5032,-4.1729 -2.5424,-1.4037 -4.3577,-2.9123 -5.4762,-4.4824 -1.1146,-1.5695 -1.6722,-3.2638 -1.6722,-5.0822 0,-2.3341 0.7025,-4.2755 2.0863,-5.8451 1.4046,-1.5494 2.9948,-2.3139 4.8138,-2.3139 2.4591,0 5.7223,1.6319 9.7515,4.896"
         style="fill:#918f90;fill-opacity:1;fill-rule:nonzero;stroke:none"
         id="path89" />
      <path
         d="M 282.0407,232.4761 V 97.6581 h -3.3806 v 134.818 z M 165.2151,216.2341 220.6715,93.7346 h 40.3614 v 3.9246 h -4.9521 c -6.1073,0 -10.3896,1.8272 -12.9334,5.4848 -1.4681,2.2311 -2.2289,7.4046 -2.2289,15.3856 v 93.1634 c 0,8.7415 0.9839,14.1829 2.9001,16.3228 2.5852,2.9877 6.6878,4.4603 12.2622,4.4603 h 4.9521 v 3.9248 h -60.4741 v -3.9248 h 4.9524 c 6.1062,0 10.3876,-1.8292 12.7988,-5.485 1.6055,-2.187 2.3615,-7.2701 2.3615,-15.2981 v -95.347 l -55.4564,121.8303 z"
         style="fill:#008a5c;fill-opacity:1;fill-rule:nonzero;stroke:none"
         id="path91" />
      <path
         d="m 124.1546,167.6974 v -49.2565 c 0,-8.7373 1.0276,-14.1455 2.9002,-16.3208 2.5401,-2.9514 6.6002,-4.4609 12.2621,-4.4609 h 4.9524 v -3.9246 h -43.9577 v 3.9246 h 5.0865 c 6.021,0 10.2594,1.8635 12.799,5.4848 1.5531,2.2158 2.3629,7.2703 2.3629,15.2969 v 49.2565 z m 60.6391,-73.5109 c -13.8651,30.3341 -43.5614,138.2896 -84.4821,138.2896 v 3.9248 h 40.3631 l 44.119,-95.0346 z"
         style="fill:#3ca576;fill-opacity:1;fill-rule:evenodd;stroke:none"
         id="path93" />
    </g>
  </g>
</svg>
