<?xml version="1.0" encoding="UTF-8" standalone="no"?>
<svg
   xmlns:dc="http://purl.org/dc/elements/1.1/"
   xmlns:cc="http://creativecommons.org/ns#"
   xmlns:rdf="http://www.w3.org/1999/02/22-rdf-syntax-ns#"
   xmlns:svg="http://www.w3.org/2000/svg"
   xmlns="http://www.w3.org/2000/svg"
   xmlns:sodipodi="http://sodipodi.sourceforge.net/DTD/sodipodi-0.dtd"
   xmlns:inkscape="http://www.inkscape.org/namespaces/inkscape"
   sodipodi:docname="logo-białenapis.svg"
   inkscape:version="1.0 (4035a4fb49, 2020-05-01)"
   id="svg77"
   version="1.1"
   viewBox="0 0 226.22459 66.697998"
   height="66.697998mm"
   width="226.22459mm">
  <defs
     id="defs71" />
  <sodipodi:namedview
     inkscape:window-maximized="0"
     inkscape:window-y="0"
     inkscape:window-x="160"
     inkscape:window-height="1030"
     inkscape:window-width="1661"
     fit-margin-bottom="0"
     fit-margin-right="0"
     fit-margin-left="0"
     fit-margin-top="0"
     showgrid="false"
     inkscape:document-rotation="0"
     inkscape:current-layer="layer1"
     inkscape:document-units="mm"
     inkscape:cy="144.39274"
     inkscape:cx="378.75251"
     inkscape:zoom="1.979899"
     inkscape:pageshadow="2"
     inkscape:pageopacity="0.0"
     borderopacity="1.0"
     bordercolor="#666666"
     pagecolor="#ffffff"
     id="base" />
  <metadata
     id="metadata74">
    <rdf:RDF>
      <cc:Work
         rdf:about="">
        <dc:format>image/svg+xml</dc:format>
        <dc:type
           rdf:resource="http://purl.org/dc/dcmitype/StillImage" />
        <dc:title></dc:title>
      </cc:Work>
    </rdf:RDF>
  </metadata>
  <g
     transform="translate(82.118257,-12.764096)"
     id="layer1"
     inkscape:groupmode="layer"
     inkscape:label="Warstwa 1">
    <g
       id="g87"
       inkscape:label="wieczorek-logo"
       transform="matrix(0.35277777,0,0,-0.35277777,-117.50596,112.0776)">
      <path
         d="M 349.7618,171.1672 324.21,226.7759 V 182.611 c 0,-4.0487 0.4522,-6.5682 1.3428,-7.5606 1.1549,-1.383 3.0566,-2.0653 5.6778,-2.0653 h 2.2949 v -1.8179 h -22.9906 v 1.8179 h 2.353 c 2.7907,0 4.7718,0.8467 5.9304,2.5407 0.7441,1.0125 1.0944,3.3678 1.0944,7.0852 v 43.1527 c 0,2.9324 -0.3107,5.0601 -0.9708,6.3405 -0.4346,0.9303 -1.2822,1.7155 -2.4999,2.3553 -1.2402,0.6619 -3.2003,0.9717 -5.9071,0.9717 v 1.8176 h 18.6933 l 24.0242,-51.7456 23.55,51.7456 h 18.6922 v -1.8176 h -2.293 c -2.8275,0 -4.8126,-0.847 -5.9904,-2.5415 -0.6812,-1.0327 -1.0301,-3.4291 -1.0301,-7.126 V 182.611 c 0,-4.0487 0.4521,-6.5682 1.3425,-7.5606 1.1956,-1.383 3.0982,-2.0653 5.678,-2.0653 h 2.293 v -1.8179 H 367.484 v 1.8179 h 2.295 c 2.8301,0 4.8123,0.8467 5.9264,2.5407 0.7435,1.0125 1.097,3.3678 1.097,7.0852 v 44.1649 l -25.4722,-55.6087 z m 99.6795,106.4404 v -5.733 h 4.0785 V 270.54 h -4.0785 v -11.3295 c 0,-1.1325 0.1607,-1.8938 0.4867,-2.2847 0.3195,-0.3958 0.7353,-0.5913 1.2424,-0.5913 0.4249,0 0.8258,0.1298 1.2235,0.39 0.39,0.2605 0.6973,0.6438 0.9192,1.1523 h 0.7427 c -0.451,-1.2424 -1.0743,-2.1793 -1.8879,-2.8114 -0.8152,-0.631 -1.6551,-0.9434 -2.5177,-0.9434 -0.5868,0 -1.1594,0.1627 -1.7212,0.4876 -0.5579,0.3257 -0.9683,0.7877 -1.2356,1.3932 -0.2656,0.599 -0.404,1.5287 -0.404,2.7916 V 270.54 h -2.7589 v 0.625 c 0.6973,0.2793 1.4139,0.7543 2.1424,1.4193 0.7294,0.6693 1.3853,1.4639 1.9508,2.3755 0.2945,0.4805 0.7024,1.3654 1.2237,2.6478 z m -12.5067,-20.6818 c -1.7907,-1.3848 -2.9166,-2.1861 -3.3795,-2.4001 -0.6823,-0.3189 -1.4117,-0.4819 -2.1869,-0.4819 -1.2107,0 -2.2054,0.4164 -2.9846,1.2427 -0.781,0.8271 -1.1727,1.9134 -1.1727,3.2604 0,0.8529 0.1873,1.5874 0.574,2.2119 0.5193,0.8589 1.4233,1.673 2.7122,2.4415 1.2892,0.7599 3.4375,1.6849 6.4375,2.7779 v 0.6902 c 0,1.7371 -0.2742,2.9347 -0.8289,3.5853 -0.5533,0.644 -1.3586,0.9697 -2.4128,0.9697 -0.8008,0 -1.4398,-0.2148 -1.9066,-0.6505 -0.4819,-0.4303 -0.7234,-0.9247 -0.7234,-1.4834 l 0.038,-1.1069 c 0,-0.5848 -0.1477,-1.0347 -0.4476,-1.3536 -0.2982,-0.3191 -0.6889,-0.4756 -1.1727,-0.4756 -0.4737,0 -0.8575,0.1635 -1.1563,0.4946 -0.3013,0.3328 -0.4501,0.7815 -0.4501,1.3539 0,1.0941 0.5601,2.0956 1.6789,3.0132 1.1194,0.9113 2.6893,1.3731 4.7126,1.3731 1.5494,0 2.818,-0.2602 3.8123,-0.781 0.7481,-0.3971 1.302,-1.0148 1.6594,-1.8549 0.2288,-0.5466 0.3379,-1.6589 0.3379,-3.3506 v -5.9292 c 0,-1.6657 0.0329,-2.6876 0.0993,-3.0648 0.0654,-0.3708 0.168,-0.6242 0.3115,-0.7478 0.1511,-0.1299 0.3186,-0.1956 0.5071,-0.1956 0.2018,0 0.3841,0.0453 0.5332,0.1375 0.2684,0.1624 0.7824,0.6307 1.5437,1.3909 v -1.0669 c -1.4193,-1.9052 -2.7793,-2.863 -4.0804,-2.863 -0.6197,0 -1.1126,0.2151 -1.484,0.6514 -0.371,0.4297 -0.5601,1.1704 -0.5711,2.2116 z m 0,1.237 v 6.6577 c -1.9219,-0.7684 -3.1567,-1.3082 -3.718,-1.6202 -1.0068,-0.5605 -1.7246,-1.1455 -2.1537,-1.7578 -0.4354,-0.6109 -0.6495,-1.275 -0.6495,-2.0041 0,-0.9111 0.2725,-1.6727 0.8195,-2.2779 0.5468,-0.5987 1.1778,-0.904 1.8874,-0.904 0.9705,0 2.239,0.6381 3.8143,1.9063 z m -24.2553,23.3558 v -17.3687 l 4.4462,4.0407 c 0.9422,0.8663 1.4893,1.4125 1.6398,1.6396 0.1024,0.1565 0.1494,0.3073 0.1494,0.4564 0,0.2605 -0.1054,0.4754 -0.3141,0.663 -0.2083,0.1826 -0.553,0.2863 -1.0406,0.3127 v 0.6123 h 7.5875 v -0.6123 c -1.0394,-0.0264 -1.9068,-0.1823 -2.5954,-0.4743 -0.6964,-0.2931 -1.4578,-0.8135 -2.285,-1.5681 l -4.4756,-4.1332 4.4756,-5.6608 c 1.249,-1.5684 2.0886,-2.5577 2.5178,-2.9809 0.6122,-0.5921 1.1451,-0.9822 1.601,-1.1585 0.3211,-0.1304 0.8725,-0.1948 1.6605,-0.1948 v -0.684 H 417.56 v 0.684 c 0.4876,0.0125 0.8153,0.0905 0.9822,0.2203 0.1752,0.1375 0.26,0.3195 0.26,0.5672 0,0.2923 -0.252,0.7605 -0.76,1.4057 l -5.3629,6.8454 v -5.7923 c 0,-1.131 0.0856,-1.8808 0.2407,-2.2314 0.1565,-0.3572 0.3849,-0.612 0.6772,-0.7614 0.2928,-0.1559 0.9298,-0.241 1.9066,-0.2535 v -0.684 h -8.8824 v 0.684 c 0.8915,0 1.556,0.1106 1.9973,0.3249 0.2667,0.1434 0.4762,0.3583 0.612,0.6505 0.1894,0.4165 0.2863,1.1452 0.2863,2.1739 v 15.8976 c 0,2.0234 -0.0465,3.261 -0.1298,3.7097 -0.0904,0.4479 -0.2398,0.7602 -0.4445,0.9371 -0.201,0.1687 -0.4666,0.2534 -0.7982,0.2534 -0.2673,0 -0.6628,-0.1037 -1.1982,-0.3259 l -0.3249,0.6715 5.186,2.1342 z m -16.1458,-9.1304 c 2.6427,0 4.7656,-1.0083 6.3723,-3.0124 1.3606,-1.7181 2.0361,-3.6907 2.0361,-5.9102 0,-1.5665 -0.377,-3.149 -1.1268,-4.7492 -0.7478,-1.6016 -1.7818,-2.8108 -3.0957,-3.6247 -1.315,-0.8138 -2.7797,-1.2177 -4.3948,-1.2177 -2.6337,0 -4.7231,1.048 -6.2725,3.1436 -1.3082,1.7702 -1.9647,3.7551 -1.9647,5.9482 0,1.6067 0.3974,3.1944 1.1919,4.7761 0.792,1.5815 1.8414,2.753 3.1357,3.5079 1.296,0.7614 2.6674,1.1384 4.1185,1.1384 z m -0.5922,-1.2427 c -0.6698,0 -1.3464,-0.1959 -2.0287,-0.5984 -0.6784,-0.4045 -1.2317,-1.1001 -1.6481,-2.1087 -0.4221,-1.0029 -0.6301,-2.2904 -0.6301,-3.8659 0,-2.5432 0.5071,-4.737 1.5154,-6.5798 1.0111,-1.8408 2.3439,-2.764 3.9954,-2.764 1.2317,0 2.2459,0.5068 3.0538,1.5219 0.7985,1.0222 1.1956,2.766 1.1956,5.2452 0,3.1045 -0.6644,5.5443 -2.0035,7.3211 -0.8972,1.2231 -2.0495,1.8286 -3.4498,1.8286 z m -37.1157,0.7291 h 7.3188 v -0.7096 c -0.6713,-0.0524 -1.1126,-0.1689 -1.3275,-0.3577 -0.2083,-0.1964 -0.3121,-0.4688 -0.3121,-0.8206 0,-0.396 0.1109,-0.8714 0.3263,-1.4315 l 3.7355,-10.0471 3.7548,8.1799 -0.9905,2.5699 c -0.3067,0.7617 -0.7015,1.2892 -1.2041,1.582 -0.2792,0.1823 -0.7985,0.2869 -1.5602,0.3251 v 0.7096 h 8.3151 v -0.7096 c -0.9164,-0.0382 -1.5684,-0.2018 -1.9462,-0.4949 -0.2523,-0.201 -0.3836,-0.5275 -0.3836,-0.9697 0,-0.2534 0.0519,-0.5137 0.1562,-0.781 l 3.9629,-10.0346 3.6768,9.6704 c 0.2542,0.6831 0.3852,1.2302 0.3852,1.6398 0,0.2404 -0.1239,0.4558 -0.3716,0.6449 -0.2463,0.1947 -0.7353,0.2988 -1.4573,0.3251 v 0.7096 h 5.5043 v -0.7096 c -1.1047,-0.163 -1.9176,-0.9113 -2.4386,-2.2456 l -5.8312,-15.0454 h -0.7815 l -4.3656,11.1552 -5.0911,-11.1552 h -0.7078 l -5.6041,14.6812 c -0.3685,0.9244 -0.7293,1.5556 -1.0868,1.874 -0.3577,0.3262 -0.9164,0.5728 -1.6761,0.7358 z m -6.2155,-15.5007 c -0.8524,-0.8918 -1.6866,-1.5299 -2.499,-1.9205 -0.8139,-0.3835 -1.6918,-0.5794 -2.6286,-0.5794 -1.9086,0 -3.5742,0.8011 -5,2.3958 -1.4179,1.5931 -2.1331,3.6442 -2.1331,6.1427 0,2.5053 0.7877,4.7959 2.3683,6.8783 1.5755,2.0749 3.5986,3.1164 6.0769,3.1164 1.537,0 2.8112,-0.4944 3.8155,-1.4701 v 3.221 c 0,1.9985 -0.0471,3.2222 -0.1454,3.6839 -0.0973,0.4542 -0.2464,0.7665 -0.4482,0.9298 -0.2013,0.1701 -0.4561,0.248 -0.7611,0.248 -0.3319,0 -0.769,-0.0972 -1.3153,-0.3069 l -0.2449,0.6715 5.2039,2.1342 h 0.8532 V 261.326 c 0,-2.0435 0.0507,-3.2933 0.1428,-3.742 0.0981,-0.455 0.2481,-0.7674 0.4629,-0.9443 0.2067,-0.1825 0.4547,-0.2658 0.7286,-0.2658 0.3449,0 0.8056,0.104 1.3725,0.3248 l 0.2149,-0.6695 -5.186,-2.1552 h -0.8779 z m 0,1.3328 v 9.0003 c -0.0797,0.8589 -0.3053,1.6537 -0.6852,2.363 -0.3821,0.7083 -0.8917,1.2497 -1.5148,1.6072 -0.6301,0.3645 -1.2441,0.5462 -1.8417,0.5462 -1.1188,0 -2.116,-0.5011 -2.9945,-1.5029 -1.1576,-1.328 -1.7368,-3.2547 -1.7368,-5.7983 0,-2.5699 0.5587,-4.5357 1.6781,-5.9031 1.1192,-1.3657 2.3616,-2.0492 3.7355,-2.0492 1.1594,0 2.2768,0.5794 3.3594,1.7368 z m -23.8901,5.3564 h -10.0083 l -1.7498,-4.0808 c -0.4366,-1.0018 -0.652,-1.7498 -0.652,-2.2507 0,-0.3903 0.1905,-0.7359 0.5601,-1.0341 0.377,-0.3002 1.1852,-0.4952 2.4333,-0.5868 v -0.703 h -8.1397 v 0.703 c 1.0791,0.1962 1.7753,0.4422 2.0959,0.7484 0.6492,0.6052 1.3658,1.8476 2.1529,3.7162 l 9.0978,21.2732 h 0.6645 l 8.9977,-21.5008 c 0.7248,-1.7311 1.3822,-2.8505 1.9726,-3.3639 0.5933,-0.5156 1.4179,-0.807 2.4744,-0.8731 v -0.703 H 328.413 v 0.703 c 1.029,0.0522 1.7251,0.2277 2.0894,0.5208 0.3645,0.286 0.5468,0.6437 0.5468,1.0672 0,0.5601 -0.2591,1.4386 -0.7662,2.649 z m -0.5324,1.4125 -4.388,10.4442 -4.4963,-10.4442 z M 707.4524,163.2657 v -44.3716 l 11.3199,10.2881 c 2.4177,2.2297 3.8013,3.6153 4.1735,4.1726 0.2894,0.4124 0.4317,0.8061 0.4317,1.2183 0,0.6409 -0.2892,1.1985 -0.826,1.6532 -0.5358,0.4736 -1.4236,0.7426 -2.6215,0.826 v 1.5089 h 19.3535 v -1.5089 c -2.6628,-0.0834 -4.8727,-0.4958 -6.6509,-1.2399 -1.7753,-0.7438 -3.7168,-2.086 -5.8028,-4.0275 l -11.4455,-10.5358 11.4455,-14.4592 c 3.181,-3.9864 5.3073,-6.5273 6.4029,-7.6224 1.5681,-1.5287 2.9523,-2.5203 4.1111,-2.9741 0.8042,-0.3107 2.2289,-0.4754 4.2344,-0.4754 V 93.9626 H 719.93 v 1.7554 c 1.1979,0.0411 2.0228,0.2277 2.4777,0.578 0.4329,0.3303 0.6622,0.8054 0.6622,1.4253 0,0.7642 -0.64,1.9627 -1.942,3.6144 l -13.6755,17.4972 v -14.8326 c 0,-2.8919 0.2073,-4.8121 0.599,-5.72 0.4133,-0.8895 0.993,-1.5497 1.7357,-1.9222 0.7421,-0.392 2.3748,-0.599 4.8738,-0.6401 V 93.9626 H 691.96 v 1.7554 c 2.2524,0 3.9441,0.2895 5.0814,0.847 0.6808,0.3711 1.2174,0.9083 1.5712,1.6314 0.4961,1.0944 0.722,2.9537 0.722,5.5786 v 40.5898 c 0,5.1645 -0.1046,8.3248 -0.332,9.4813 -0.2063,1.156 -0.5779,1.9412 -1.1148,2.3959 -0.5162,0.4343 -1.1974,0.6619 -2.0438,0.6619 -0.7027,0 -1.7138,-0.2889 -3.0994,-0.8484 l -0.7846,1.7563 13.2621,5.4539 z m -50.0493,-41.459 c 0,-6.6713 1.6095,-11.8772 4.8328,-15.6158 3.2632,-3.7601 7.0838,-5.6398 11.4429,-5.6398 2.933,0 5.4958,0.8053 7.6436,2.3961 2.1691,1.5906 3.9665,4.3589 5.4334,8.2633 l 1.5084,-0.9714 c -0.6832,-4.4411 -2.6655,-8.4892 -5.9304,-12.166 -3.2627,-3.6771 -7.395,-5.495 -12.3525,-5.495 -5.37,0 -9.9562,2.0869 -13.7577,6.2595 -3.8222,4.1729 -5.7203,9.7908 -5.7203,16.8553 0,7.6216 1.9403,13.5715 5.8671,17.847 3.9025,4.2769 8.8399,6.4247 14.7685,6.4247 4.9995,0 9.1083,-1.6517 12.3112,-4.9371 3.2003,-3.2851 4.8141,-7.704 4.8141,-13.2208 z m 0,2.7686 h 20.698 c -0.1661,2.8715 -0.5168,4.8963 -1.0346,6.052 -0.8042,1.8184 -2.0231,3.2646 -3.6355,4.2976 -1.6098,1.0536 -3.2842,1.5902 -5.0181,1.5902 -2.7071,0 -5.1245,-1.0531 -7.2715,-3.1603 -2.1288,-2.086 -3.3877,-5.0208 -3.7383,-8.7795 z m -27.6599,15.3281 v -10.061 c 3.7593,6.7141 7.5812,10.061 11.5058,10.061 1.8167,0 3.3044,-0.5576 4.4413,-1.6336 1.1546,-1.0942 1.7328,-2.3548 1.7328,-3.7582 0,-1.302 -0.4124,-2.3754 -1.237,-3.2428 -0.826,-0.8689 -1.8383,-1.3017 -2.9976,-1.3017 -1.1753,0 -2.4761,0.5576 -3.8832,1.6727 -1.4029,1.0945 -2.4372,1.652 -3.0756,1.652 -0.6208,0 -1.2603,-0.3095 -1.944,-0.9697 -1.4437,-1.3221 -2.9738,-3.4917 -4.5425,-6.5276 v -21.4211 c 0,-2.4591 0.3299,-4.3181 0.9697,-5.5783 0.4142,-0.8876 1.1356,-1.6113 2.2108,-2.2099 1.0732,-0.5777 2.6223,-0.8672 4.6267,-0.8672 v -1.7554 h -22.805 v 1.7554 c 2.2504,0 3.9234,0.3717 5.0207,1.0948 0.8056,0.5159 1.3615,1.3428 1.6937,2.478 0.165,0.5165 0.2474,2.0869 0.2474,4.7095 v 17.3118 c 0,5.1633 -0.1026,8.2621 -0.3095,9.2539 -0.2072,1.0123 -0.578,1.7354 -1.1577,2.1887 -0.5573,0.4345 -1.2591,0.6619 -2.107,0.6619 -1.0125,0 -2.1489,-0.2481 -3.3876,-0.7234 l -0.5588,1.7563 13.5103,5.4539 z m -41.0888,0 c 6.7754,0 12.2083,-2.562 16.278,-7.6853 3.4704,-4.4002 5.2075,-9.44 5.2075,-15.1416 0,-3.9863 -0.9507,-8.0348 -2.8726,-12.1048 -1.9222,-4.0682 -4.5457,-7.1467 -7.8922,-9.2537 -3.3676,-2.1069 -7.104,-3.1399 -11.2561,-3.1399 -6.7145,0 -12.0433,2.6649 -16.0518,8.0351 -3.3055,4.5247 -4.9561,9.5848 -4.9561,15.2045 0,4.1096 1.0109,8.1791 3.0356,12.2071 2.0024,4.0493 4.669,7.0234 7.9747,8.966 3.305,1.9411 6.8157,2.9126 10.533,2.9126 z m -1.5055,-3.1609 c -1.6945,0 -3.4319,-0.5162 -5.1851,-1.5285 -1.7566,-1.0329 -3.162,-2.8304 -4.2347,-5.3918 -1.0754,-2.5616 -1.593,-5.866 -1.593,-9.8949 0,-6.5072 1.2807,-12.1047 3.8647,-16.7941 2.581,-4.7095 5.9905,-7.0435 10.2246,-7.0435 3.1589,0 5.7413,1.2809 7.7882,3.863 2.0233,2.5824 3.056,7.0438 3.056,13.3852 0,7.9316 -1.6945,14.1908 -5.0808,18.7563 -2.3142,3.0994 -5.2478,4.6483 -8.8399,4.6483 z M 561.2862,107.6363 560.749,93.9626 h -39.3295 v 1.7554 l 29.5786,39.4552 h -14.5825 c -3.1399,0 -5.2075,-0.2072 -6.1781,-0.6001 -0.9479,-0.4122 -1.7742,-1.1767 -2.4154,-2.2918 -0.8476,-1.6744 -1.3439,-3.6785 -1.5095,-6.0542 h -1.9411 l 0.3106,12.3341 h 37.389 v -1.7567 L 532.1809,97.2252 h 16.2763 c 3.3879,0 5.703,0.2906 6.9412,0.8479 1.2177,0.578 2.2107,1.5698 2.933,3.0353 0.5176,1.0125 0.9725,3.1825 1.3232,6.5279 z m -45.1559,3.265 c -1.1976,-5.8882 -3.5731,-10.4117 -7.0634,-13.5726 -3.5121,-3.1805 -7.3964,-4.7506 -11.6305,-4.7506 -5.0811,0 -9.5015,2.1277 -13.2815,6.3825 -3.782,4.2551 -5.6616,10.0182 -5.6616,17.2689 0,7.024 2.0863,12.7251 6.2603,17.1049 4.1729,4.3781 9.1908,6.569 15.0361,6.569 4.4002,0 8.0169,-1.1787 10.8454,-3.492 2.8099,-2.314 4.2349,-4.7302 4.2349,-7.2292 0,-1.2399 -0.4141,-2.2516 -1.2197,-2.996 -0.8037,-0.7441 -1.9202,-1.1151 -3.3231,-1.1151 -1.9029,0 -3.3469,0.5984 -4.3594,1.8178 -0.5176,0.6823 -0.8668,1.9837 -1.0548,3.9042 -0.1842,1.9001 -0.8461,3.3678 -1.9613,4.3801 -1.178,0.9694 -2.747,1.4454 -4.7307,1.4454 -3.2627,0 -5.8873,-1.1772 -7.8695,-3.5527 -2.6238,-3.2026 -3.9249,-7.4165 -3.9249,-12.6632 0,-5.3291 1.3011,-10.0185 3.9028,-14.0885 2.6024,-4.0889 6.1372,-6.1137 10.6197,-6.1137 3.1807,0 6.0312,1.095 8.5283,3.2632 1.8198,1.4876 3.5541,4.193 5.2072,8.1176 z m -74.7352,10.9054 c 0,-6.6713 1.6121,-11.8772 4.834,-15.6158 3.2635,-3.7601 7.084,-5.6398 11.4426,-5.6398 2.9336,0 5.4952,0.8053 7.6445,2.3961 2.167,1.5906 3.9645,4.3589 5.4328,8.2633 l 1.5084,-0.9714 c -0.6838,-4.4411 -2.666,-8.4892 -5.929,-12.166 -3.2647,-3.6771 -7.3959,-5.495 -12.3522,-5.495 -5.3714,0 -9.9582,2.0869 -13.7594,6.2595 -3.8211,4.1729 -5.7212,9.7908 -5.7212,16.8553 0,7.6216 1.9418,13.5715 5.8677,17.847 3.9028,4.2769 8.8402,6.4247 14.7674,6.4247 5,0 9.11,-1.6517 12.3129,-4.9371 3.202,-3.2851 4.8138,-7.704 4.8138,-13.2208 z m 0,2.7686 h 20.6986 c -0.1655,2.8715 -0.5176,4.8963 -1.0338,6.052 -0.8039,1.8184 -2.0236,3.2646 -3.6362,4.2976 -1.6096,1.0536 -3.2834,1.5902 -5.0191,1.5902 -2.7056,0 -5.1233,-1.0531 -7.2697,-3.1603 -2.1277,-2.086 -3.388,-5.0208 -3.7398,-8.7795 z m -23.8583,38.6904 c 1.3847,0 2.5398,-0.4961 3.4914,-1.4678 0.9496,-0.9697 1.425,-2.1274 1.425,-3.5107 0,-1.3218 -0.4754,-2.4781 -1.425,-3.4699 -0.9516,-0.9919 -2.1067,-1.4876 -3.4914,-1.4876 -1.3635,0 -2.5401,0.4957 -3.5116,1.4876 -0.9728,0.9918 -1.4482,2.1481 -1.4482,3.4699 0,1.3833 0.4754,2.541 1.4267,3.5107 0.9507,0.9717 2.1274,1.4678 3.5331,1.4678 z m 4.0479,-23.3623 v -35.8399 c 0,-2.8097 0.2072,-4.689 0.6193,-5.5984 0.3929,-0.9085 0.993,-1.5905 1.7762,-2.0449 0.7852,-0.4745 2.2527,-0.7022 4.4019,-0.7022 v -1.7554 h -21.6703 v 1.7554 c 2.1697,0 3.6369,0.2073 4.3804,0.6401 0.7416,0.4136 1.3428,1.1152 1.7541,2.0857 0.4354,0.9718 0.6423,2.831 0.6423,5.6197 v 17.1856 c 0,4.8546 -0.1465,7.9745 -0.4362,9.3782 -0.2274,1.0539 -0.5981,1.777 -1.0721,2.1912 -0.4958,0.3911 -1.1577,0.5981 -2.0041,0.5981 -0.8875,0 -1.9822,-0.2481 -3.2644,-0.7234 l -0.7222,1.7563 13.4251,5.4539 z m -19.2935,20.1404 v -1.8184 c -1.7124,0 -3.0991,-0.309 -4.1938,-0.9303 -1.0727,-0.6188 -2.1053,-1.7765 -3.0762,-3.4903 -0.6401,-1.1152 -1.654,-3.8223 -3.0373,-8.0978 L 373.538,92.4534 h -1.9426 l -15.0579,42.2439 -14.9567,-42.2439 h -1.7564 l -19.603,54.824 c -1.4442,4.1114 -2.3746,6.5274 -2.7864,7.2715 -0.6424,1.2384 -1.5305,2.1685 -2.666,2.7674 -1.1163,0.6202 -2.6442,0.9091 -4.5451,0.9091 v 1.8184 h 24.459 v -1.8184 h -1.1574 c -1.7339,0 -3.0577,-0.3929 -3.967,-1.1781 -0.8881,-0.7849 -1.3425,-1.7135 -1.3425,-2.8077 0,-1.1376 0.7024,-3.7607 2.1084,-7.8721 l 13.013,-37.0366 10.9488,31.4807 -1.921,5.5559 -1.5914,4.4209 c -0.6806,1.6537 -1.4451,3.0784 -2.2941,4.297 -0.4121,0.6401 -0.9068,1.177 -1.5072,1.5702 -0.805,0.5986 -1.6327,1.0332 -2.4777,1.2809 -0.6211,0.1854 -1.592,0.2889 -2.914,0.2889 v 1.8184 h 25.7184 v -1.8184 h -1.7549 c -1.819,0 -3.1391,-0.3929 -3.9889,-1.1781 -0.8465,-0.7849 -1.2793,-1.838 -1.2793,-3.1805 0,-1.6523 0.7438,-4.5238 2.2518,-8.655 l 12.6411,-35.8809 12.5184,36.3761 c 1.4672,4.0281 2.1895,6.8171 2.1895,8.3458 0,0.7645 -0.2259,1.4658 -0.7027,2.1271 -0.455,0.6401 -1.0537,1.095 -1.7754,1.3844 -1.2605,0.4547 -2.8726,0.6611 -4.854,0.6611 v 1.8184 z m 128.9611,17.5485 c -4.5672,-3.5127 -7.4177,-5.5577 -8.5949,-6.1155 -1.7751,-0.8056 -3.6545,-1.2175 -5.6192,-1.2175 -3.0781,0 -5.5975,1.0534 -7.6016,3.1391 -2.0024,2.1073 -2.9946,4.8946 -2.9946,8.3665 0,2.1685 0.4743,4.0478 1.4451,5.6179 1.3445,2.232 3.6358,4.2959 6.9418,6.2382 3.2851,1.9418 8.7577,4.3169 16.4234,7.147 v 1.7561 c 0,4.4212 -0.7024,7.4786 -2.1291,9.1304 -1.4049,1.6523 -3.4503,2.4786 -6.1546,2.4786 -2.0262,0 -3.636,-0.5372 -4.8546,-1.6316 -1.2402,-1.1359 -1.8794,-2.3961 -1.8794,-3.8223 l 0.1247,-2.8289 c 0,-1.5075 -0.3727,-2.6439 -1.1375,-3.4504 -0.7659,-0.8061 -1.7547,-1.2183 -2.9741,-1.2183 -1.1985,0 -2.1923,0.4331 -2.9551,1.281 -0.7849,0.8464 -1.1574,1.9828 -1.1574,3.4492 0,2.7674 1.4275,5.3291 4.2973,7.6841 2.8726,2.3347 6.8783,3.5124 12.0447,3.5124 3.945,0 7.2079,-0.6823 9.7492,-2.004 1.8782,-1.0129 3.3058,-2.5827 4.2344,-4.7308 0.5573,-1.4037 0.847,-4.2752 0.847,-8.5929 v -15.1209 c 0,-4.2344 0.0833,-6.8377 0.2256,-7.8091 0.1661,-0.9698 0.4357,-1.6107 0.8263,-1.9406 0.3932,-0.3099 0.8286,-0.4751 1.3011,-0.4751 0.5165,0 0.9717,0.1244 1.3235,0.3503 0.7013,0.4136 2.0237,1.592 4.0068,3.5122 v -2.7051 c -3.6754,-4.8552 -7.1683,-7.2718 -10.4729,-7.2718 -1.5681,0 -2.8284,0.5369 -3.7797,1.6319 -0.9508,1.0945 -1.4451,2.9736 -1.4862,5.6399 z m 0,3.2011 v 17.0005 c -4.877,-1.9837 -8.0575,-3.3673 -9.5029,-4.1729 -2.5412,-1.4037 -4.3574,-2.9123 -5.4745,-4.4824 -1.116,-1.5695 -1.6722,-3.2638 -1.6722,-5.0822 0,-2.3341 0.7024,-4.2755 2.0863,-5.8451 1.4029,-1.5494 2.9931,-2.3139 4.8127,-2.3139 2.4579,0 5.7206,1.6319 9.7506,4.896 z m -40.0125,49.6797 v -14.707 h 10.4091 v -3.3879 H 491.2398 V 183.458 c 0,-2.9126 0.4125,-4.8756 1.2376,-5.8657 0.8261,-1.0123 1.9024,-1.5293 3.1811,-1.5293 1.0531,0 2.0863,0.3299 3.0983,1.0122 0.9921,0.6608 1.7974,1.6526 2.3558,2.9948 h 1.8788 c -1.1361,-3.2017 -2.745,-5.5973 -4.8115,-7.2096 -2.086,-1.611 -4.2134,-2.4163 -6.3833,-2.4163 -1.5495,0 -3.0169,0.4133 -4.4195,1.2393 -1.4276,0.8266 -2.4588,2.0044 -3.1615,3.5317 -0.6812,1.5497 -1.0114,3.9249 -1.0114,7.1481 v 30.015 h -7.0852 v 1.631 c 1.7753,0.6812 3.5921,1.9001 5.4728,3.6151 1.8797,1.7141 3.5331,3.7388 5.0001,6.0729 0.7633,1.2195 1.817,3.4702 3.1399,6.7759 z m -33.154,-13.3648 v -10.0604 c 3.7591,6.7136 7.5799,10.0604 11.5056,10.0604 1.8167,0 3.3046,-0.5572 4.4413,-1.6327 1.1554,-1.0947 1.7331,-2.355 1.7331,-3.7593 0,-1.3011 -0.4122,-2.3754 -1.237,-3.2426 -0.8278,-0.8682 -1.8383,-1.3011 -2.9971,-1.3011 -1.1772,0 -2.4775,0.5573 -3.8838,1.6725 -1.4025,1.0944 -2.4372,1.652 -3.0753,1.652 -0.6219,0 -1.2611,-0.3093 -1.9443,-0.9703 -1.4451,-1.3215 -2.9743,-3.4911 -4.5425,-6.5271 v -21.4214 c 0,-2.4587 0.3303,-4.3177 0.9683,-5.578 0.4139,-0.8878 1.137,-1.6109 2.2125,-2.2099 1.0743,-0.578 2.6237,-0.8671 4.6275,-0.8671 v -1.7561 h -22.8058 v 1.7561 c 2.2518,0 3.9228,0.3716 5.0201,1.0942 0.8056,0.517 1.3621,1.343 1.6923,2.4783 0.1656,0.5168 0.2475,2.0866 0.2475,4.7101 v 17.3114 c 0,5.1633 -0.1009,8.2619 -0.3079,9.2537 -0.2069,1.0123 -0.5779,1.7354 -1.1576,2.1892 -0.5576,0.434 -1.2592,0.6613 -2.107,0.6613 -1.0108,0 -2.1495,-0.248 -3.3874,-0.7231 l -0.5596,1.7561 13.5102,5.4538 z m -32.0788,-39.516 c -4.5663,-3.5127 -7.4171,-5.5577 -8.5938,-6.1155 -1.7779,-0.8056 -3.6578,-1.2175 -5.6208,-1.2175 -3.077,0 -5.5959,1.0534 -7.6003,3.1391 -2.0044,2.1073 -2.9956,4.8946 -2.9956,8.3665 0,2.1685 0.4753,4.0478 1.4462,5.6179 1.3425,2.232 3.6363,4.2959 6.9418,6.2382 3.2831,1.9418 8.7576,4.3169 16.4225,7.147 v 1.7561 c 0,4.4212 -0.7044,7.4786 -2.1294,9.1304 -1.4054,1.6523 -3.4492,2.4786 -6.1549,2.4786 -2.0247,0 -3.6374,-0.5372 -4.8551,-1.6316 -1.2399,-1.1359 -1.8803,-2.3961 -1.8803,-3.8223 l 0.1245,-2.8289 c 0,-1.5075 -0.3725,-2.6439 -1.1356,-3.4504 -0.7645,-0.8061 -1.756,-1.2183 -2.9741,-1.2183 -1.2002,0 -2.1903,0.4331 -2.9551,1.281 -0.7832,0.8464 -1.156,1.9828 -1.156,3.4492 0,2.7674 1.4259,5.3291 4.2959,7.6841 2.871,2.3347 6.88,3.5124 12.043,3.5124 3.9453,0 7.208,-0.6823 9.7504,-2.004 1.8799,-1.0129 3.3057,-2.5827 4.2349,-4.7308 0.5556,-1.4037 0.8453,-4.2752 0.8453,-8.5929 v -15.1209 c 0,-4.2344 0.0833,-6.8377 0.229,-7.8091 0.1656,-0.9698 0.4329,-1.6107 0.8241,-1.9406 0.3946,-0.3099 0.8274,-0.4751 1.3016,-0.4751 0.5179,0 0.9726,0.1244 1.3233,0.3503 0.7024,0.4136 2.0239,1.592 4.0084,3.5122 v -2.7051 c -3.6785,-4.8552 -7.1688,-7.2718 -10.4729,-7.2718 -1.5712,0 -2.8315,0.5369 -3.7819,1.6319 -0.9485,1.0945 -1.4443,2.9736 -1.4851,5.6399 z m 0,3.2011 v 17.0005 c -4.8773,-1.9837 -8.0578,-3.3673 -9.5032,-4.1729 -2.5424,-1.4037 -4.3577,-2.9123 -5.4762,-4.4824 -1.1146,-1.5695 -1.6722,-3.2638 -1.6722,-5.0822 0,-2.3341 0.7025,-4.2755 2.0863,-5.8451 1.4046,-1.5494 2.9948,-2.3139 4.8138,-2.3139 2.4591,0 5.7223,1.6319 9.7515,4.896"
         style="fill:#918f90;fill-opacity:1;fill-rule:nonzero;stroke:none"
         id="path89" />
      <path
         d="M 282.0407,232.4761 V 97.6581 h -3.3806 v 134.818 z M 165.2151,216.2341 220.6715,93.7346 h 40.3614 v 3.9246 h -4.9521 c -6.1073,0 -10.3896,1.8272 -12.9334,5.4848 -1.4681,2.2311 -2.2289,7.4046 -2.2289,15.3856 v 93.1634 c 0,8.7415 0.9839,14.1829 2.9001,16.3228 2.5852,2.9877 6.6878,4.4603 12.2622,4.4603 h 4.9521 v 3.9248 h -60.4741 v -3.9248 h 4.9524 c 6.1062,0 10.3876,-1.8292 12.7988,-5.485 1.6055,-2.187 2.3615,-7.2701 2.3615,-15.2981 v -95.347 l -55.4564,121.8303 z"
         style="fill:#008a5c;fill-opacity:1;fill-rule:nonzero;stroke:none"
         id="path91" />
      <path
         d="m 124.1546,167.6974 v -49.2565 c 0,-8.7373 1.0276,-14.1455 2.9002,-16.3208 2.5401,-2.9514 6.6002,-4.4609 12.2621,-4.4609 h 4.9524 v -3.9246 h -43.9577 v 3.9246 h 5.0865 c 6.021,0 10.2594,1.8635 12.799,5.4848 1.5531,2.2158 2.3629,7.2703 2.3629,15.2969 v 49.2565 z m 60.6391,-73.5109 c -13.8651,30.3341 -43.5614,138.2896 -84.4821,138.2896 v 3.9248 h 40.3631 l 44.119,-95.0346 z"
         style="fill:#3ca576;fill-opacity:1;fill-rule:evenodd;stroke:none"
         id="path93" />
    </g>
    <path
       transform="matrix(0.26458333,0,0,0.26458333,-82.118257,12.764096)"
       id="path99"
       d="M 108.9534,240.22129 C 107.21726,235.84981 102.25014,222.78466 97.915363,211.18764 73.948645,147.06841 59.577589,116.70882 42.233028,93.555848 29.230629,76.199159 16.345103,66.844663 3.3923638,65.358718 L 0.23563714,64.996577 V 62.7689 60.541222 l 26.78228186,0.130695 26.782279,0.130695 29.285075,63.075518 29.285067,63.07551 -0.13016,30.6079 -0.13015,30.6079 z"
       style="fill:#ffffff;fill-opacity:1;stroke-width:0.505076" />
    <path
       transform="matrix(0.26458333,0,0,0.26458333,-82.118257,12.764096)"
       id="path101"
       d="m 0.23563714,247.74787 v -2.2058 l 6.43972246,-0.25446 c 11.4423254,-0.45214 16.7721834,-3.67897 19.2185634,-11.63541 0.709071,-2.30613 0.832812,-7.6225 0.981322,-42.1611 l 0.169939,-39.52222 h 2.224026 2.224027 l 0.176231,38.7646 c 0.172863,38.02415 0.19728,38.83995 1.278287,42.70904 1.283369,4.59337 2.416011,6.36836 5.328425,8.35028 3.548142,2.41453 6.57458,3.18906 13.603506,3.48142 l 6.439723,0.26785 v 2.2058 2.20581 H 29.277523 0.23563714 Z"
       style="fill:#ffffff;fill-opacity:1;stroke-width:0.505076" />
    <path
       transform="matrix(0.26458333,0,0,0.26458333,-82.118257,12.764096)"
       id="path103"
       d="M 123.59228,168.1958 86.587206,86.440237 86.721712,72.809629 86.856218,59.179021 123.47425,139.66096 c 20.13991,44.26508 36.78849,80.48448 36.99683,80.48758 0.55746,0.008 0.43164,-130.097738 -0.13186,-136.351841 -0.61182,-6.790509 -1.66655,-10.081962 -4.12602,-12.876078 -3.49357,-3.968904 -9.12671,-5.82486 -17.67943,-5.82486 h -4.45292 v -2.272843 -2.272844 h 39.90103 39.90102 v 2.204654 2.204654 l -6.18718,0.272905 c -7.04312,0.310659 -10.31906,1.156118 -13.84258,3.572518 -2.96862,2.03585 -4.48877,4.625308 -5.58544,9.514393 -0.74149,3.305659 -0.84917,11.014818 -1.01811,72.892072 -0.19165,70.19627 -0.0406,77.8001 1.65896,83.5232 0.92569,3.11715 3.95013,6.69852 6.94872,8.22829 2.9109,1.48503 8.0711,2.42654 13.35368,2.43646 l 4.67195,0.009 v 2.27284 2.27285 l -26.64277,-0.001 -26.64278,-0.001 -37.00507,-81.75557 z"
       style="fill:#ffffff;fill-opacity:1;stroke-width:0.505076" />
    <path
       transform="matrix(0.26458333,0,0,0.26458333,-82.118257,12.764096)"
       id="path105"
       d="M 238.12656,155.25188 V 65.600837 h 2.02031 2.0203 v 89.651043 89.65103 h -2.0203 -2.02031 z"
       style="fill:#ffffff;fill-opacity:1;stroke-width:0.505076" />
    <path
       transform="matrix(0.26458333,0,0,0.26458333,-82.118257,12.764096)"
       id="path107"
       d="m 280.55297,145.90796 c 0,-0.8938 0.33672,-1.01015 2.92344,-1.01015 3.98326,0 7.08232,-1.57625 8.44077,-4.29315 0.97409,-1.94816 1.01553,-3.19162 1.16058,-34.82254 0.15518,-33.83816 -0.0434,-38.269008 -1.82311,-40.670349 -1.43847,-1.940952 -4.42083,-3.396183 -7.72665,-3.770195 -2.50824,-0.283774 -2.97503,-0.492556 -2.97503,-1.330638 0,-0.965062 0.357,-0.990107 12.24155,-0.858803 l 12.24156,0.135249 15.82069,34.092648 c 8.70137,18.750958 15.99371,34.268038 16.20518,34.482398 0.21148,0.21437 7.45176,-15.12732 16.08953,-34.092644 l 15.70502,-34.482402 12.16424,-0.135249 c 11.60112,-0.128988 12.16424,-0.09145 12.16424,0.810847 0,0.797893 -0.52305,0.994939 -3.33903,1.257898 -3.68485,0.344098 -5.8559,1.371313 -7.46732,3.533111 -1.05771,1.418977 -1.06294,1.606697 -1.06294,38.133259 0,34.51608 0.0548,36.80761 0.91738,38.38845 1.21122,2.21969 4.27994,3.59663 8.04772,3.61102 2.56377,0.01 2.90419,0.1295 2.90419,1.02124 0,0.99171 -0.33672,1.01016 -18.43529,1.01016 -17.7311,0 -18.43528,-0.0364 -18.43528,-0.95316 0,-0.81971 0.4773,-0.98194 3.40926,-1.15874 5.58199,-0.33661 8.00125,-2.22113 8.7578,-6.82203 0.5388,-3.27663 0.57299,-65.6423 0.0357,-65.034493 -0.2333,0.263902 -7.99115,17.014757 -17.23967,37.224123 -12.30275,26.8833 -17.03778,36.7443 -17.64381,36.7443 -0.60571,0 -5.35657,-9.87486 -17.6779,-36.7443 -9.26728,-20.209366 -17.04658,-36.960221 -17.28735,-37.224123 -0.60975,-0.668338 -0.55479,61.348743 0.0577,65.088833 0.80305,4.90384 3.49397,6.8501 9.47981,6.85646 2.314,0.003 2.65165,0.13145 2.65165,1.01297 0,0.98771 -0.33671,1.01016 -15.15228,1.01016 -14.81557,0 -15.15229,-0.0224 -15.15229,-1.01016 z"
       style="fill:#ffffff;fill-opacity:1;stroke-width:0.505076" />
    <path
       transform="matrix(0.26458333,0,0,0.26458333,-82.118257,12.764096)"
       id="path109"
       d="m 282.92557,35.059483 c 1.99672,-0.868321 2.38023,-1.615277 9.99215,-19.461197 3.25842,-7.6392786 6.08131,-14.0590806 6.27308,-14.2662266 0.19177,-0.207146 3.13069,6.2704571 6.53092,14.3946736 7.42601,17.74306 7.88632,18.61916 10.2007,19.414751 1.52402,0.523897 0.86077,0.602838 -5.06488,0.602838 -5.93353,0 -6.58908,-0.07824 -5.05076,-0.602838 2.39396,-0.816379 2.48845,-2.288544 0.45746,-7.126976 l -1.61922,-3.857444 -6.86899,0.140028 -6.869,0.140029 -1.70254,4.266179 c -1.90476,4.772875 -1.79887,5.459161 0.99336,6.438184 1.53626,0.538646 1.15462,0.603768 -3.58397,0.611576 -4.96222,0.0082 -5.19943,-0.03643 -3.68831,-0.693577 z m 20.86091,-12.573256 c 0,-1.1865 -5.48588,-13.717203 -5.91014,-13.4997939 -0.34243,0.1754761 -6.21169,13.3862379 -6.21169,13.9815219 0,0.113562 2.72741,0.206475 6.06091,0.206475 4.77908,0 6.06092,-0.14555 6.06092,-0.688203 z"
       style="fill:#ffffff;fill-opacity:1;stroke-width:0.505076" />
    <path
       transform="matrix(0.26458333,0,0,0.26458333,-82.118257,12.764096)"
       id="path111"
       d="m 327.41968,36.328033 c -5.59366,-1.75063 -8.46422,-9.080776 -6.18066,-15.782662 0.96599,-2.835009 3.6525,-6.056217 5.96689,-7.154466 2.12201,-1.006961 5.68798,-1.038548 7.39022,-0.06546 0.69448,0.397 1.43315,0.729873 1.6415,0.739717 0.57927,0.02737 0.45066,-9.0056258 -0.14404,-10.1168327 -0.28757,-0.5373215 -1.02624,-0.9930028 -1.6415,-1.0126253 -0.81632,-0.026035 -0.52125,-0.3007736 1.09175,-1.01655 1.21572,-0.53948 2.73514,-1.11257348 3.37649,-1.27354094 l 1.16608,-0.29266813 0.15905,15.87969907 c 0.16862,16.835919 0.23816,17.308773 2.59484,17.644337 0.8028,0.114311 0.34969,0.450183 -1.67818,1.243946 -1.52785,0.598045 -3.17567,1.247394 -3.6618,1.442997 -0.7436,0.299197 -0.88389,0.06815 -0.88389,-1.455754 v -1.811396 l -2.14657,1.48065 c -2.37177,1.635984 -4.95912,2.205043 -7.05018,1.550611 z m 7.55526,-3.046542 1.64149,-1.00084 v -6.842176 c 0,-7.769282 -0.54937,-9.81986 -2.96558,-11.069333 -2.49786,-1.291693 -4.48528,-1.017456 -6.38358,0.880845 -2.10438,2.104375 -2.95521,5.166697 -2.64667,9.525886 0.52556,7.425287 5.46772,11.485048 10.35434,8.505618 z"
       style="fill:#ffffff;fill-opacity:1;stroke-width:0.505076" />
    <path
       transform="matrix(0.26458333,0,0,0.26458333,-82.118257,12.764096)"
       id="path113"
       d="m 351.9775,26.06911 c -3.62317,-9.512498 -4.27321,-10.851685 -5.7568,-11.859784 l -1.67243,-1.136421 4.99919,0.03201 c 3.50815,0.02247 4.66024,0.168253 3.86276,0.4888 -0.8084,0.324939 -1.13642,0.875163 -1.13642,1.906263 0,1.292593 4.57963,14.442737 5.27032,15.13343 0.27555,0.275555 5.33628,-10.131306 5.33628,-10.97351 0,-0.243285 -0.45045,-1.4932 -1.00101,-2.777589 -0.72171,-1.683689 -1.46155,-2.535391 -2.65165,-3.052562 -1.55618,-0.676259 -1.3327,-0.717308 3.9052,-0.717308 5.2237,0 5.45771,0.04265 3.91434,0.713463 -0.97985,0.425885 -1.64109,1.07956 -1.64049,1.621728 10e-4,1.028755 4.89046,13.811797 5.53283,14.465463 0.6573,0.668869 6.35656,-14.473583 5.79158,-15.387745 -0.17441,-0.282197 -0.80524,-0.710035 -1.40184,-0.950752 -0.77539,-0.31285 -0.0972,-0.446797 2.37794,-0.469681 l 3.46268,-0.03201 -1.4621,1.388959 c -1.07195,1.018324 -2.53506,4.184602 -5.48299,11.865621 -2.21149,5.762163 -4.14421,10.478313 -4.29494,10.480333 -0.15074,0.002 -1.6071,-3.415208 -3.23638,-7.593839 -1.62927,-4.17863 -3.12641,-7.417432 -3.32697,-7.197337 -0.20057,0.220096 -1.81254,3.638085 -3.58216,7.595532 -1.76962,3.957446 -3.33113,7.191969 -3.47003,7.187828 -0.1389,-0.0041 -2.0905,-4.833043 -4.33691,-10.730892 z"
       style="fill:#ffffff;fill-opacity:1;stroke-width:0.505076" />
    <path
       transform="matrix(0.26458333,0,0,0.26458333,-82.118257,12.764096)"
       id="path115"
       d="m 409.78834,146.90933 c -4.54566,-2.11703 -7.35471,-5.96306 -8.07449,-11.05527 -1.54271,-10.91426 4.86022,-17.05654 26.70495,-25.61784 l 6.25608,-2.45186 -0.30631,-5.02789 c -0.57051,-9.364361 -3.64787,-12.911972 -11.20045,-12.911972 -2.93707,0 -3.95414,0.217928 -5.30369,1.136422 -3.13111,2.131016 -3.77913,3.521815 -3.81728,8.192853 -0.0408,4.992267 -0.79728,6.512137 -3.66968,7.372737 -1.60898,0.48206 -2.21165,0.44104 -3.52903,-0.2402 -4.5722,-2.36438 -4.03063,-9.012786 1.15673,-14.200143 4.4314,-4.431402 9.82397,-6.047835 18.93821,-5.67676 8.91013,0.362766 13.72368,2.681755 16.26092,7.833897 1.16567,2.367028 1.18521,2.678738 1.43431,22.878326 0.22806,18.49386 0.33933,20.61098 1.14806,21.84455 1.38662,2.11501 3.3351,1.84011 6.42808,-0.9069 1.40751,-1.25006 2.66516,-2.27284 2.79478,-2.27284 0.12962,0 0.23568,0.56395 0.23568,1.25322 0,1.77905 -5.93043,7.93616 -9.22557,9.5782 -4.35086,2.16812 -8.57801,1.43496 -10.23833,-1.77575 -0.43625,-0.84361 -0.92632,-2.65804 -1.08905,-4.03206 -0.16274,-1.37403 -0.37631,-2.49823 -0.47461,-2.49823 -0.0983,0 -2.28266,1.59209 -4.85414,3.53798 -6.44905,4.88013 -8.2986,5.70732 -13.24083,5.9218 -3.31538,0.14387 -4.47902,-0.0182 -6.33434,-0.88227 z m 17.38656,-7.58209 c 1.64554,-0.83444 3.96818,-2.25208 5.16142,-3.15033 l 2.16953,-1.63316 0.0156,-11.49049 c 0.009,-6.58948 -0.1807,-11.49048 -0.44466,-11.49048 -0.7035,0 -11.90867,4.86455 -13.52239,5.87054 -3.13716,1.9557 -5.77593,4.4071 -7.00919,6.5115 -1.57771,2.69216 -2.11433,6.8916 -1.23214,9.64236 2.18358,6.80861 8.18422,9.12623 14.86182,5.74006 z"
       style="fill:#ffffff;fill-opacity:1;stroke-width:0.505076" />
    <path
       transform="matrix(0.26458333,0,0,0.26458333,-82.118257,12.764096)"
       id="path117"
       d="m 457.26551,145.97223 c 0,-0.76786 0.48243,-0.99225 2.56301,-1.19217 2.75738,-0.26495 4.88029,-1.51264 5.89808,-3.46647 0.48379,-0.92872 0.60248,-6.29838 0.50507,-22.8501 l -0.12732,-21.636107 -1.46971,-1.263833 c -1.28561,-1.105514 -1.85504,-1.242349 -4.54569,-1.09233 -5.30096,0.295558 -3.96734,-0.894981 5.25778,-4.693691 4.58357,-1.887416 9.06584,-3.439968 9.9606,-3.450115 l 1.62684,-0.01845 0.14093,6.656642 0.14093,6.656643 1.85446,-2.99484 c 4.22697,-6.826271 8.67792,-10.30487 13.19664,-10.313705 6.49065,-0.01269 10.33792,6.375615 6.45607,10.720162 -2.18424,2.444593 -4.79616,2.295053 -9.08484,-0.520134 -1.77927,-1.167951 -3.66316,-2.123547 -4.18644,-2.123547 -1.37321,0 -4.64514,3.311233 -6.70823,6.788815 l -1.7802,3.00075 v 16.96901 c 0,16.60181 0.0246,17.01715 1.13642,19.19305 1.47814,2.89278 3.07303,3.99888 6.32062,4.38351 2.12956,0.25221 2.64448,0.49619 2.64448,1.253 0,0.89511 -0.70851,0.9398 -14.89975,0.9398 -14.22562,0 -14.89975,-0.0428 -14.89975,-0.94589 z"
       style="fill:#ffffff;fill-opacity:1;stroke-width:0.505076" />
    <path
       transform="matrix(0.26458333,0,0,0.26458333,-82.118257,12.764096)"
       id="path119"
       d="m 409.78834,35.431621 c 2.55451,-0.469657 2.52539,-0.282169 2.52539,-16.25863 0,-15.7180032 -0.0637,-16.1779316 -2.24759,-16.2229609 -1.09674,-0.022614 4.46892,-2.50403225 5.61638,-2.50403225 0.54562,0 0.67182,3.16674335 0.67182,16.85821115 0,17.978165 -0.0451,17.654828 2.52538,18.127412 0.69448,0.127683 -1.35108,0.232151 -4.54569,0.232151 -3.19461,0 -5.24017,-0.104468 -4.54569,-0.232151 z"
       style="fill:#ffffff;fill-opacity:1;stroke-width:0.505076" />
    <path
       transform="matrix(0.26458333,0,0,0.26458333,-82.118257,12.764096)"
       id="path121"
       d="m 393.37337,36.574642 c -0.2778,-0.09893 -1.13584,-0.319161 -1.90677,-0.489406 -2.12869,-0.470078 -5.16298,-3.518491 -6.4271,-6.456997 -2.0451,-4.753983 -0.76332,-10.674872 3.11257,-14.377782 2.09683,-2.003242 3.85856,-2.685774 6.89567,-2.671536 6.07852,0.0285 10.69999,4.897633 10.69999,11.2734 0,4.995157 -2.40294,9.583581 -5.9639,11.388076 -1.84493,0.934903 -5.43412,1.681943 -6.41046,1.334245 z m 5.72,-2.544216 c 1.95319,-1.6435 2.84913,-5.250342 2.45928,-9.90047 -0.68599,-8.182477 -5.3942,-12.554335 -10.29929,-9.563517 -1.73576,1.058358 -3.1833,4.658534 -3.1833,7.917188 0,2.473926 1.01035,6.758644 2.10291,8.918106 1.89446,3.744409 6.11601,4.988431 8.9204,2.628693 z"
       style="fill:#ffffff;fill-opacity:1;stroke-width:0.505076" />
    <path
       transform="matrix(0.26458333,0,0,0.26458333,-82.118257,12.764096)"
       id="path123"
       d="m 424.05675,35.255805 c 0.48614,-0.283149 0.88375,-0.787627 0.88359,-1.121063 -1.6e-4,-0.333437 -1.81085,-2.927373 -4.02375,-5.764302 l -4.02345,-5.158054 4.02374,-3.650941 c 4.06035,-3.684147 4.75634,-5.001498 3.13987,-5.943008 -0.63971,-0.372597 0.51139,-0.503012 4.16688,-0.47209 3.50808,0.02967 4.48553,0.152809 3.2002,0.403142 -2.37591,0.462735 -3.75698,1.388747 -7.83894,5.256015 l -3.32623,3.151297 4.86544,6.078809 c 4.65029,5.810006 5.8848,6.935201 8.15029,7.428563 0.55559,0.120992 -1.48997,0.239439 -4.54569,0.263216 -3.99807,0.03111 -5.30801,-0.101115 -4.67195,-0.471584 z"
       style="fill:#ffffff;fill-opacity:1;stroke-width:0.505076" />
    <path
       transform="matrix(0.26458333,0,0,0.26458333,-82.118257,12.764096)"
       id="path125"
       d="m 437.95432,34.832615 c -1.46188,-1.306181 -1.64947,-1.77229 -1.64947,-4.098352 0,-2.457298 0.13852,-2.747478 2.17358,-4.553437 1.29488,-1.149111 3.89747,-2.606089 6.43789,-3.60406 4.69895,-1.845915 4.84858,-2.089648 3.73798,-6.088653 -0.60193,-2.167395 -1.68281,-2.910132 -4.23503,-2.910132 -2.46728,0 -3.82127,1.437326 -3.82127,4.056462 0,2.211426 -0.99456,3.082017 -2.46777,2.160161 -2.12513,-1.329802 -0.48907,-5.160749 2.78889,-6.530366 2.20034,-0.919364 6.93496,-0.88786 8.76467,0.05832 2.80191,1.448921 3.03604,2.27833 3.03604,10.755074 0,8.332336 0.36806,9.975263 2.11082,9.422132 1.59576,-0.506473 0.88878,0.852792 -1.02484,1.970408 -2.20633,1.288565 -4.04947,0.792274 -4.44743,-1.197532 -0.1652,-0.825968 -0.44313,-1.501761 -0.61764,-1.501761 -0.17451,0 -1.43617,0.795495 -2.80369,1.767767 -3.24115,2.304372 -5.63408,2.392493 -7.98273,0.293969 z m 9.26125,-2.206514 1.71619,-1.154931 0.14522,-4.653446 c 0.0902,-2.88924 -0.048,-4.653446 -0.36441,-4.653446 -0.28029,0 -1.76492,0.55515 -3.29916,1.233666 -3.78545,1.674102 -5.32049,3.406601 -5.32049,6.004871 0,4.029717 3.54227,5.63274 7.12265,3.223286 z"
       style="fill:#ffffff;fill-opacity:1;stroke-width:0.505076" />
    <path
       transform="matrix(0.26458333,0,0,0.26458333,-82.118257,12.764096)"
       id="path127"
       d="m 463.39295,35.451687 c -1.61029,-1.303929 -2.03877,-4.035055 -2.06483,-13.16114 l -0.022,-7.702414 h -1.82239 -1.82239 l 2.54035,-2.283991 c 1.39719,-1.256195 3.06958,-3.3585746 3.71643,-4.6719551 l 1.17608,-2.3879645 0.14751,3.9143412 0.14752,3.9143414 h 2.75667 c 2.11366,0 2.75667,0.176719 2.75667,0.757614 0,0.581603 -0.64537,0.757614 -2.77792,0.757614 h -2.77792 v 8.619501 c 0,4.975761 0.22103,9.032489 0.52285,9.59645 0.5755,1.075323 2.04021,1.262633 3.55097,0.454101 1.34736,-0.721083 1.22592,0.112863 -0.21332,1.464959 -1.69404,1.591468 -4.33928,1.922923 -5.81428,0.728543 z"
       style="fill:#ffffff;fill-opacity:1;stroke-width:0.505076" />
    <path
       transform="matrix(0.26458333,0,0,0.26458333,-82.118257,12.764096)"
       id="path129"
       d="m 518.66149,147.20353 c -4.07409,-1.51045 -6.41159,-4.19787 -7.31492,-8.40996 -0.3406,-1.58817 -0.54297,-10.80525 -0.54297,-24.73027 V 91.864803 h -4.79823 c -5.82302,0 -6.13299,-0.547781 -1.81732,-3.211568 1.6395,-1.011955 4.61836,-3.593285 6.61969,-5.73629 2.87706,-3.080727 4.18262,-5.034495 6.23674,-9.333231 1.42887,-2.990272 2.88206,-5.441502 3.2293,-5.447177 0.48384,-0.0079 0.63134,2.290693 0.63134,9.838669 v 9.848987 h 7.07107 7.07107 v 2.020305 2.020305 h -7.10013 -7.10013 l 0.15533,22.097087 c 0.14054,19.99223 0.24034,22.25264 1.04777,23.73003 2.34555,4.29183 8.3147,4.06119 11.42479,-0.44144 0.72591,-1.05093 1.72063,-1.91941 2.21049,-1.92995 0.83277,-0.0179 0.83946,0.10394 0.1029,1.87487 -3.20451,7.70467 -11.02051,12.27198 -17.12679,10.00813 z"
       style="fill:#ffffff;fill-opacity:1;stroke-width:0.505076" />
    <path
       transform="matrix(0.26458333,0,0,0.26458333,-82.118257,12.764096)"
       id="path131"
       d="m 550.79178,147.31671 c -2.53968,-0.85707 -6.37134,-4.57669 -7.54927,-7.32853 -3.15515,-7.37092 -1.22669,-14.39476 5.40449,-19.68418 3.22404,-2.57169 12.29695,-7.09778 20.68496,-10.31884 l 5.7479,-2.20724 -0.32548,-4.63034 c -0.68926,-9.805553 -3.66856,-13.303082 -11.33193,-13.303082 -3.95522,0 -6.03583,1.036197 -8.03385,4.001053 -0.93421,1.386266 -1.14844,2.39245 -1.14844,5.393785 0,4.463814 -0.61011,5.957594 -2.87158,7.030734 -3.74107,1.77525 -7.23356,-0.87313 -7.22521,-5.47891 0.009,-4.70325 3.81471,-9.719818 9.30614,-12.265576 3.937,-1.825137 7.46713,-2.358001 13.90507,-2.098928 8.85932,0.356515 13.07189,2.344878 15.94041,7.523986 l 1.50228,2.712386 0.25254,20.782142 c 0.23732,19.52999 0.31051,20.84615 1.2147,21.84455 1.55639,1.71853 3.40746,1.34953 6.30682,-1.25724 l 2.58001,-2.31965 v 1.61428 c 0,1.32147 -0.6184,2.22908 -3.40927,5.00366 -3.77066,3.74867 -7.04299,5.5975 -9.90726,5.5975 -3.95846,0 -6.16642,-2.3283 -6.73135,-7.09822 -0.16273,-1.37403 -0.37724,-2.49823 -0.47669,-2.49823 -0.0994,0 -2.28381,1.55857 -4.85414,3.46349 -6.79435,5.0354 -8.44343,5.77482 -13.25963,5.94543 -2.22233,0.0787 -4.79689,-0.11209 -5.72122,-0.42403 z m 15.57021,-7.49908 c 1.25006,-0.55957 3.69337,-1.97329 5.42957,-3.14162 l 3.15673,-2.12424 v -11.49449 c 0,-6.5397 -0.19745,-11.4945 -0.45806,-11.4945 -1.0031,0 -11.39056,4.61369 -14.09106,6.25868 -5.47367,3.33425 -8.14763,7.36705 -8.16822,12.31909 -0.034,8.17558 6.89103,12.91791 14.13104,9.67708 z"
       style="fill:#ffffff;fill-opacity:1;stroke-width:0.505076" />
    <path
       transform="matrix(0.26458333,0,0,0.26458333,-82.118257,12.764096)"
       id="path133"
       d="m 306.03954,213.98643 c -7.46881,-20.91454 -14.14793,-39.50378 -14.84249,-41.30942 -2.22908,-5.79493 -4.18791,-7.64747 -8.82085,-8.34222 -1.88095,-0.28207 -2.39246,-0.56249 -2.39246,-1.31158 0,-0.91384 0.66099,-0.9528 16.16244,-0.9528 15.82573,0 16.16244,0.021 16.16244,1.01015 0,0.7266 -0.33671,1.01015 -1.19955,1.01015 -2.53416,0 -4.47253,0.69903 -5.90187,2.12836 -1.90136,1.90137 -1.93772,3.95154 -0.17004,9.58859 2.13464,6.80727 18.43976,53.14925 18.85354,53.58505 0.20873,0.21983 3.68242,-9.09882 7.71932,-20.70813 l 7.33982,-21.10782 -2.4272,-6.89396 c -4.4341,-12.59417 -6.61318,-15.44124 -12.54424,-16.38966 -1.57137,-0.25127 -2.07333,-0.56047 -2.07333,-1.27714 0,-0.90526 0.72175,-0.94559 16.92006,-0.94559 16.21109,0 16.92005,0.0397 16.92005,0.9476 0,0.78484 -0.48076,0.98748 -2.79886,1.17972 -5.41119,0.44873 -7.24952,3.31813 -5.99845,9.36279 0.70442,3.40345 18.61667,55.01577 19.37683,55.83235 0.46853,0.5033 19.10136,-53.54132 19.64187,-56.97135 0.82018,-5.20483 -1.04426,-7.50313 -6.5963,-8.13127 -2.39551,-0.27102 -2.91696,-0.49893 -2.91696,-1.27493 0,-0.89846 0.63312,-0.94491 12.87945,-0.94491 12.34537,0 12.87944,0.04 12.87944,0.96575 0,0.72614 -0.48045,1.04693 -1.93636,1.29291 -4.35475,0.73573 -6.76598,3.3561 -9.32585,10.13475 -0.94018,2.48965 -7.37079,20.94698 -14.29023,41.01629 -11.28796,32.73982 -12.68991,36.48987 -13.64238,36.49176 -0.9468,0.002 -2.14797,-3.05626 -11.11168,-28.29005 -6.37968,-17.95949 -10.20441,-28.0587 -10.4726,-27.65292 -0.23237,0.35157 -4.80162,13.02623 -10.15388,28.16589 -7.97166,22.549 -9.90577,27.553 -10.69571,27.67236 -0.84532,0.12772 -2.64017,-4.54708 -14.54397,-37.88072 z"
       style="fill:#ffffff;fill-opacity:1;stroke-width:0.505076" />
    <path
       transform="matrix(0.26458333,0,0,0.26458333,-82.118257,12.764096)"
       id="path135"
       d="m 408.77819,248.94352 c 0,-0.81949 0.33672,-1.01015 1.78399,-1.01015 2.69628,0 5.10377,-1.22266 6.13742,-3.11694 0.84477,-1.54813 0.91743,-3.34123 0.91743,-22.64195 0,-20.27114 -0.0343,-21.01882 -1.0427,-22.72843 -1.02975,-1.74583 -1.08614,-1.76802 -4.54273,-1.78836 -2.70999,-0.016 -3.53323,-0.19291 -3.64705,-0.78396 -0.10735,-0.55742 2.27631,-1.74579 8.83588,-4.40508 4.94059,-2.00295 9.38064,-3.63891 9.86678,-3.63546 0.8297,0.006 0.88406,1.53101 0.88681,24.88126 0.002,13.77448 0.22301,26.21902 0.4961,27.88679 0.65909,4.02489 2.30751,5.72849 5.96174,6.16128 2.11662,0.25068 2.6306,0.49518 2.6306,1.25136 0,0.89397 -0.6896,0.9398 -14.14213,0.9398 -13.80542,0 -14.14214,-0.0241 -14.14214,-1.01016 z"
       style="fill:#ffffff;fill-opacity:1;stroke-width:0.505076" />
    <path
       transform="matrix(0.26458333,0,0,0.26458333,-82.118257,12.764096)"
       id="path137"
       d="m 420.60629,170.16736 c -0.57824,-0.23393 -1.65784,-1.14609 -2.39911,-2.02705 -2.37518,-2.82273 -1.5047,-7.70464 1.66616,-9.34435 4.25327,-2.19945 9.1343,0.59938 9.19882,5.2747 0.0625,4.5278 -4.40004,7.7415 -8.46587,6.0967 z"
       style="fill:#ffffff;fill-opacity:1;stroke-width:0.505076" />
    <path
       transform="matrix(0.26458333,0,0,0.26458333,-82.118257,12.764096)"
       id="path139"
       d="m 464.21635,250.48812 c -5.43003,-1.73585 -11.00294,-6.36182 -14.16575,-11.75875 -4.4909,-7.66315 -5.448,-20.74993 -2.26349,-30.94956 2.2834,-7.31346 8.72391,-14.4212 15.29532,-16.87987 14.54109,-5.44052 28.86997,1.52704 31.82566,15.47556 0.39913,1.88354 0.72963,4.04964 0.73445,4.81357 l 0.009,1.38896 h -20.5298 -20.52979 l 0.30722,4.67196 c 0.50673,7.70604 2.87933,13.43766 7.45774,18.01607 3.98511,3.9851 7.70795,5.71333 12.92082,5.99811 6.11849,0.33426 9.16607,-0.75377 13.07278,-4.66719 1.98382,-1.98722 3.48735,-4.07236 4.29315,-5.95385 1.31954,-3.08101 1.37177,-3.13395 2.43069,-2.46299 0.57125,0.36196 0.54265,0.92887 -0.17157,3.40153 -2.67645,9.2659 -9.42033,16.85302 -16.97378,19.09615 -3.60019,1.06915 -10.05381,0.97986 -13.71242,-0.1897 z m 18.09476,-44.33446 c -0.45074,-4.39946 -1.64538,-7.00585 -4.31233,-9.40834 -2.80599,-2.52775 -5.13378,-3.4612 -8.63132,-3.4612 -7.24661,0 -13.55166,6.03585 -14.4827,13.86434 l -0.28533,2.39911 h 14.0297 14.02969 z"
       style="fill:#ffffff;fill-opacity:1;stroke-width:0.505076" />
    <path
       transform="matrix(0.26458333,0,0,0.26458333,-82.118257,12.764096)"
       id="path141"
       d="m 522.04893,250.24616 c -5.39061,-2.00285 -11.06556,-7.11179 -13.7546,-12.38274 -2.33643,-4.57977 -3.15549,-8.23427 -3.41901,-15.25493 -0.43368,-11.55418 1.90636,-18.5633 8.3732,-25.08012 5.57905,-5.62218 11.69444,-8.25648 19.2196,-8.27913 6.94796,-0.0209 11.6162,1.70462 15.91524,5.88281 5.38512,5.23374 5.24083,11.98808 -0.27968,13.09219 -4.06263,0.81252 -7.6227,-1.82453 -8.22263,-6.09076 -0.52592,-3.73984 -1.19572,-5.43452 -2.69889,-6.82855 -5.2763,-4.89317 -15.3232,-2.05805 -19.40846,5.47684 -4.31514,7.9589 -4.00995,21.74714 0.67595,30.53878 3.74841,7.03275 8.07137,10.07446 14.82984,10.43455 3.32037,0.1769 4.5808,0.0119 7.07107,-0.9259 3.94231,-1.48456 8.51428,-5.98797 10.60627,-10.44723 1.34733,-2.87194 2.32592,-3.79216 2.95326,-2.7771 0.32495,0.52579 -1.77901,6.96372 -3.17718,9.7219 -3.05374,6.02409 -8.36522,10.87144 -14.31564,13.0647 -4.09175,1.50817 -10.08104,1.4476 -14.36834,-0.14531 z"
       style="fill:#ffffff;fill-opacity:1;stroke-width:0.505076" />
    <path
       transform="matrix(0.26458333,0,0,0.26458333,-82.118257,12.764096)"
       id="path143"
       d="m 561.8163,248.85979 c 0,-0.65365 7.78525,-11.47769 19.34459,-26.89531 10.63952,-14.19079 19.52549,-26.09924 19.74661,-26.46324 0.32848,-0.54073 -2.07856,-0.63313 -13.1574,-0.50507 -12.48768,0.14434 -13.69526,0.23657 -15.27793,1.16688 -2.0967,1.23246 -3.48037,3.77806 -4.24739,7.81411 -0.44838,2.35939 -0.78012,3.04503 -1.47328,3.04503 -0.81879,0 -0.89459,-0.68468 -0.89459,-8.08122 v -8.08122 h 24.74874 c 24.53501,0 24.74874,0.009 24.74874,1.02544 0,0.56767 -8.89823,12.79969 -19.93252,27.40039 l -19.93252,26.37495 13.24026,0.13537 c 8.04977,0.0823 14.26773,-0.0777 15.86122,-0.40824 4.63325,-0.96099 6.42513,-3.19636 7.4532,-9.29783 0.46767,-2.77559 0.80495,-3.59993 1.53002,-3.73957 0.87318,-0.16816 0.90976,0.15353 0.59761,5.25519 -0.18288,2.98886 -0.3325,6.98993 -0.3325,8.89126 v 3.45697 H 587.82773 561.8163 Z"
       style="fill:#ffffff;fill-opacity:1;stroke-width:0.505076" />
    <path
       transform="matrix(0.26458333,0,0,0.26458333,-82.118257,12.764096)"
       id="path145"
       d="m 643.13358,250.74515 c -9.27207,-2.58411 -17.01596,-11.26475 -19.49454,-21.85272 -1.02103,-4.3616 -1.0108,-12.11049 0.0212,-16.06186 1.21826,-4.66456 5.02774,-11.96091 7.86668,-15.06716 5.12619,-5.60887 11.73259,-8.51267 19.40283,-8.52838 2.51801,-0.005 5.71451,0.25832 7.10331,0.58551 9.0078,2.12214 16.93568,10.00572 20.09185,19.97957 1.44756,4.57444 1.53756,13.46124 0.18671,18.43529 -3.03082,11.15992 -10.24002,19.27391 -19.70013,22.17257 -3.99655,1.22458 -11.69226,1.39223 -15.4779,0.33718 z m 14.74067,-4.0984 c 3.06818,-1.04543 6.69858,-4.72758 7.94459,-8.05783 1.56145,-4.17336 2.24015,-10.35249 1.91046,-17.39354 -0.48287,-10.3123 -3.04949,-18.01246 -7.7445,-23.23444 -3.0188,-3.35763 -5.61259,-4.66366 -9.86887,-4.9692 -2.98578,-0.21434 -3.74791,-0.066 -6.65838,1.29598 -2.34226,1.09607 -3.72709,2.14599 -4.81937,3.65384 -8.52737,11.77169 -4.10483,40.43434 7.32922,47.50098 3.40654,2.10535 7.9219,2.56202 11.90685,1.20421 z"
       style="fill:#ffffff;fill-opacity:1;stroke-width:0.505076" />
    <path
       transform="matrix(0.26458333,0,0,0.26458333,-82.118257,12.764096)"
       id="path147"
       d="m 686.06507,249.01388 c 0,-0.75426 0.5112,-1.00035 2.58926,-1.24646 2.92867,-0.34686 4.56794,-1.24977 5.86373,-3.22976 0.8166,-1.24777 0.88787,-3.11147 0.85438,-22.34259 -0.0448,-25.75221 0.13139,-25.10111 -6.68288,-24.68929 -2.2315,0.13485 -2.88576,0.007 -2.99792,-0.58511 -0.1045,-0.55187 2.36303,-1.75204 9.08627,-4.41942 5.07635,-2.01399 9.61829,-3.6618 10.09318,-3.6618 0.76515,0 0.87944,0.77914 1.00397,6.84401 l 0.14052,6.844 2.52538,-3.87507 c 4.16162,-6.3858 8.33269,-9.42049 12.89952,-9.38511 4.52428,0.035 7.55037,2.80295 7.55418,6.90966 0.002,2.37704 -0.97242,3.9736 -3.09609,5.07179 -1.9997,1.03409 -3.5795,0.63938 -7.27515,-1.81766 -1.65627,-1.10116 -3.56802,-2.00283 -4.24834,-2.00372 -1.54219,-0.002 -5.27533,3.85345 -7.25741,7.49519 l -1.40406,2.57971 0.15099,17.31137 c 0.13549,15.53507 0.24419,17.4821 1.05938,18.97521 1.16442,2.13274 3.50953,3.55053 6.54147,3.95479 1.89337,0.25246 2.39912,0.51912 2.39912,1.26497 0,0.90204 -0.67867,0.94509 -14.89975,0.94509 -14.19124,0 -14.89975,-0.0447 -14.89975,-0.9398 z"
       style="fill:#ffffff;fill-opacity:1;stroke-width:0.505076" />
    <path
       transform="matrix(0.26458333,0,0,0.26458333,-82.118257,12.764096)"
       id="path149"
       d="m 752.40977,250.58754 c -8.99188,-3.20573 -15.41698,-10.74728 -17.62201,-20.68408 -1.03353,-4.65751 -1.03924,-13.19801 -0.0122,-18.2306 1.8271,-8.95292 7.13654,-16.17972 14.54935,-19.80349 15.67937,-7.6649 32.61982,0.95193 34.01018,17.2994 l 0.28996,3.40926 H 763.0217 742.41834 l 0.32958,4.16688 c 0.62734,7.93146 2.74487,13.21836 7.23808,18.07157 4.002,4.32263 8.09648,6.24413 13.78183,6.46765 7.84858,0.30858 13.08018,-2.88147 16.66393,-10.1611 0.91862,-1.86599 1.87344,-3.39271 2.12182,-3.39271 0.96366,0 1.03761,1.74482 0.18963,4.47407 -2.2928,7.37942 -7.98742,14.52249 -13.82754,17.34459 -3.02644,1.46246 -3.90423,1.64309 -8.67064,1.78422 -4.11567,0.12186 -5.87031,-0.0451 -7.83527,-0.74566 z m 17.87085,-44.57723 c -0.82845,-7.7534 -5.85384,-12.75144 -12.82121,-12.75144 -7.413,0 -13.33623,5.75184 -14.69892,14.27363 l -0.32222,2.01507 h 14.11015 14.11015 z"
       style="fill:#ffffff;fill-opacity:1;stroke-width:0.505076" />
    <path
       transform="matrix(0.26458333,0,0,0.26458333,-82.118257,12.764096)"
       id="path151"
       d="m 789.03439,249.01418 c 0,-0.77113 0.51511,-0.99265 2.87448,-1.23615 1.61388,-0.16657 3.44125,-0.71585 4.16688,-1.25251 2.90585,-2.14911 2.80763,-0.75837 2.80763,-39.75586 0,-38.05993 -0.0533,-38.96569 -2.36458,-40.20267 -0.56155,-0.30053 -2.3048,-0.46925 -3.8739,-0.37493 -2.25544,0.13558 -2.85289,0.0155 -2.85289,-0.57364 0,-0.89514 15.89827,-7.58862 18.02439,-7.58862 h 1.39363 l 0.13998,42.89471 c 0.13912,42.63505 0.14637,42.90334 1.19743,44.32044 1.19838,1.61572 3.60707,2.61799 6.39242,2.65992 1.54781,0.0233 1.89403,0.21315 1.89403,1.03865 0,0.98733 -0.33672,1.01016 -14.89975,1.01016 -14.18948,0 -14.89975,-0.0448 -14.89975,-0.9395 z"
       style="fill:#ffffff;fill-opacity:1;stroke-width:0.505076" />
    <path
       transform="matrix(0.26458333,0,0,0.26458333,-82.118257,12.764096)"
       id="path153"
       d="m 826.41004,248.94352 c 0,-0.63128 0.33671,-1.01015 0.89777,-1.01015 1.59222,0 3.14284,-1.47696 3.14284,-2.99356 0,-1.62503 -1.26692,-3.42289 -12.62691,-17.91858 -4.30578,-5.4943 -7.76943,-10.07991 -7.69701,-10.19025 0.0724,-0.11034 2.79984,-2.62913 6.06092,-5.59732 11.08569,-10.09002 14.76807,-13.92015 14.76807,-15.3606 0,-1.53906 -1.19224,-2.77067 -3.15672,-3.26094 -0.76393,-0.19066 -1.38896,-0.66293 -1.38896,-1.04951 0,-0.58168 2.17689,-0.70286 12.6269,-0.70286 10.8872,0 12.62691,0.10439 12.62691,0.75762 0,0.42736 -0.45191,0.75761 -1.03672,0.75761 -0.57019,0 -2.62206,0.36058 -4.5597,0.80129 -4.62067,1.05095 -7.22476,2.86069 -16.65282,11.57308 -4.20855,3.88909 -8.13221,7.44963 -8.71924,7.91232 -1.24071,0.97791 -2.36107,-0.63313 12.64887,18.18861 11.61067,14.55921 14.50937,17.07135 19.70857,17.08027 1.30384,0.002 1.6415,0.21061 1.6415,1.01297 0,0.9861 -0.33672,1.01016 -14.14214,1.01016 -13.80542,0 -14.14213,-0.024 -14.14213,-1.01016 z"
       style="fill:#ffffff;fill-opacity:1;stroke-width:0.505076" />
  </g>
</svg>
