<?xml version="1.0" encoding="utf-8"?>

<!DOCTYPE svg PUBLIC "-//W3C//DTD SVG 1.1//EN" "http://www.w3.org/Graphics/SVG/1.1/DTD/svg11.dtd">
<svg version="1.1" id="Layer_1" xmlns="http://www.w3.org/2000/svg" xmlns:xlink="http://www.w3.org/1999/xlink" x="0px" y="0px"
	 viewBox="0 0 1955.834 1698.532" enable-background="new 0 0 1955.834 1698.532" xml:space="preserve">
<g>
	<path d="M1522.041,504.197l1.903-1.099l-179.235-310.445l-1.903,1.099c73.854-64.817-9.713-182.037-95.215-132.672L832.282,300.858
		c-85.55,49.392-25.701,180.322,67.289,148.795l-1.903,1.099l71.564,123.952l-109.853,64.65l-10.981-19.019
		C575.27,720.139,309.648,869.619,80.391,1052.988c-59.666,47.724-4.849,142.681,66.332,114.863
		c273.856-107.025,535.939-262.368,758.679-448.782l-10.978-19.014l110.915-62.81l71.564,123.952l1.903-1.099
		c-73.855,64.818,9.713,182.037,95.215,132.672l415.308-239.778C1674.693,603.707,1615.226,472.604,1522.041,504.197z"/>
	<path d="M1789.356,1466.047c0-71.234-57.74-129.05-129.049-129.05h-517.792c-71.239,0-129.049,57.745-129.049,129.05h-67.603
		c-24.257,0-43.922,19.664-43.922,43.922v95.375c0,24.257,19.664,43.922,43.922,43.922h911.096
		c24.257,0,43.922-19.664,43.922-43.922v-95.375c0-24.257-19.664-43.922-43.922-43.922H1789.356z"/>
</g>
</svg>
